<svg class="chart arch" viewBox="0 0 650 308" role="img" aria-label="OpenScience architecture"><defs><marker id="ag" viewBox="0 0 8 8" refX="7" refY="4" markerWidth="7" markerHeight="7" orient="auto-start-reverse"><path d="M0 0.8L7.2 4L0 7.2z" class="mk-g"/></marker><marker id="aa" viewBox="0 0 8 8" refX="7" refY="4" markerWidth="7" markerHeight="7" orient="auto-start-reverse"><path d="M0 0.8L7.2 4L0 7.2z" class="mk-a"/></marker></defs><rect class="fam-science" x="142.8" y="24" width="2.2" height="2.2"/><rect class="fam-science" x="142.8" y="27.1" width="2.2" height="2.2"/><rect class="fam-science" x="142.8" y="30.2" width="2.2" height="2.2"/><rect class="fam-science" x="142.8" y="33.3" width="2.2" height="2.2"/><rect class="fam-science" x="142.8" y="36.4" width="2.2" height="2.2"/><rect class="fam-science" x="142.8" y="39.5" width="2.2" height="2.2"/><rect class="fam-science" x="142.8" y="42.6" width="2.2" height="2.2"/><rect class="fam-science" x="145.9" y="24" width="2.2" height="2.2"/><rect class="fam-science" x="145.9" y="27.1" width="2.2" height="2.2"/><rect class="fam-science" x="145.9" y="30.2" width="2.2" height="2.2"/><rect class="fam-science" x="145.9" y="33.3" width="2.2" height="2.2"/><rect class="fam-science" x="145.9" y="36.4" width="2.2" height="2.2"/><rect class="fam-science" x="145.9" y="39.5" width="2.2" height="2.2"/><rect class="fam-science" x="145.9" y="42.6" width="2.2" height="2.2"/><rect class="fam-science" x="149" y="24" width="2.2" height="2.2"/><rect class="fam-science" x="149" y="27.1" width="2.2" height="2.2"/><rect class="fam-science" x="149" y="30.2" width="2.2" height="2.2"/><rect class="fam-science" x="149" y="33.3" width="2.2" height="2.2"/><rect class="fam-science" x="149" y="36.4" width="2.2" height="2.2"/><rect class="fam-science" x="149" y="39.5" width="2.2" height="2.2"/><rect class="fam-science" x="149" y="42.6" width="2.2" height="2.2"/><rect class="fam-science" x="152.2" y="24" width="2.2" height="2.2"/><rect class="fam-science" x="152.2" y="27.1" width="2.2" height="2.2"/><rect class="fam-science" x="152.2" y="30.2" width="2.2" height="2.2"/><rect class="fam-science" x="152.2" y="33.3" width="2.2" height="2.2"/><rect class="fam-science" x="152.2" y="36.4" width="2.2" height="2.2"/><rect class="fam-science" x="152.2" y="39.5" width="2.2" height="2.2"/><rect class="fam-science" x="152.2" y="42.6" width="2.2" height="2.2"/><rect class="fam-science" x="155.2" y="24" width="2.2" height="2.2"/><rect class="fam-science" x="155.2" y="27.1" width="2.2" height="2.2"/><rect class="fam-science" x="155.2" y="30.2" width="2.2" height="2.2"/><rect class="fam-science" x="155.2" y="33.3" width="2.2" height="2.2"/><rect class="fam-science" x="155.2" y="36.4" width="2.2" height="2.2"/><rect class="fam-science" x="155.2" y="39.5" width="2.2" height="2.2"/><rect class="fam-science" x="155.2" y="42.6" width="2.2" height="2.2"/><rect class="fam-science" x="158.3" y="24" width="2.2" height="2.2"/><rect class="fam-science" x="158.3" y="27.1" width="2.2" height="2.2"/><rect class="fam-science" x="158.3" y="30.2" width="2.2" height="2.2"/><rect class="fam-science" x="158.3" y="33.3" width="2.2" height="2.2"/><rect class="fam-science" x="158.3" y="36.4" width="2.2" height="2.2"/><rect class="fam-science" x="158.3" y="39.5" width="2.2" height="2.2"/><rect class="fam-science" x="158.3" y="42.6" width="2.2" height="2.2"/><rect class="fam-science" x="161.4" y="24" width="2.2" height="2.2"/><rect class="fam-science" x="161.4" y="27.1" width="2.2" height="2.2"/><rect class="fam-science" x="161.4" y="30.2" width="2.2" height="2.2"/><rect class="fam-science" x="161.4" y="33.3" width="2.2" height="2.2"/><rect class="fam-science" x="161.4" y="36.4" width="2.2" height="2.2"/><rect class="fam-science" x="161.4" y="39.5" width="2.2" height="2.2"/><rect class="fam-science" x="161.4" y="42.6" width="2.2" height="2.2"/><rect class="fam-science" x="164.5" y="24" width="2.2" height="2.2"/><rect class="fam-science" x="164.5" y="27.1" width="2.2" height="2.2"/><rect class="fam-science" x="164.5" y="30.2" width="2.2" height="2.2"/><rect class="fam-science" x="164.5" y="33.3" width="2.2" height="2.2"/><rect class="fam-science" x="164.5" y="36.4" width="2.2" height="2.2"/><rect class="fam-science" x="164.5" y="39.5" width="2.2" height="2.2"/><rect class="fam-science" x="164.5" y="42.6" width="2.2" height="2.2"/><rect class="fam-science" x="167.7" y="24" width="2.2" height="2.2"/><rect class="fam-science" x="167.7" y="27.1" width="2.2" height="2.2"/><rect class="fam-science" x="167.7" y="30.2" width="2.2" height="2.2"/><rect class="fam-science" x="167.7" y="33.3" width="2.2" height="2.2"/><rect class="fam-science" x="167.7" y="36.4" width="2.2" height="2.2"/><rect class="fam-science" x="167.7" y="39.5" width="2.2" height="2.2"/><rect class="fam-science" x="167.7" y="42.6" width="2.2" height="2.2"/><rect class="fam-science" x="170.8" y="24" width="2.2" height="2.2"/><rect class="fam-science" x="170.8" y="27.1" width="2.2" height="2.2"/><rect class="fam-science" x="170.8" y="30.2" width="2.2" height="2.2"/><rect class="fam-science" x="170.8" y="33.3" width="2.2" height="2.2"/><rect class="fam-science" x="170.8" y="36.4" width="2.2" height="2.2"/><rect class="fam-science" x="170.8" y="39.5" width="2.2" height="2.2"/><rect class="fam-science" x="170.8" y="42.6" width="2.2" height="2.2"/><rect class="fam-science" x="173.8" y="24" width="2.2" height="2.2"/><rect class="fam-science" x="173.8" y="27.1" width="2.2" height="2.2"/><rect class="fam-science" x="173.8" y="30.2" width="2.2" height="2.2"/><rect class="fam-science" x="173.8" y="33.3" width="2.2" height="2.2"/><rect class="fam-science" x="173.8" y="36.4" width="2.2" height="2.2"/><rect class="fam-science" x="173.8" y="39.5" width="2.2" height="2.2"/><rect class="fam-science" x="173.8" y="42.6" width="2.2" height="2.2"/><rect class="fam-science" x="176.9" y="24" width="2.2" height="2.2"/><rect class="fam-science" x="176.9" y="27.1" width="2.2" height="2.2"/><rect class="fam-science" x="176.9" y="30.2" width="2.2" height="2.2"/><rect class="fam-science" x="176.9" y="33.3" width="2.2" height="2.2"/><rect class="fam-science" x="176.9" y="36.4" width="2.2" height="2.2"/><rect class="fam-science" x="176.9" y="39.5" width="2.2" height="2.2"/><rect class="fam-science" x="176.9" y="42.6" width="2.2" height="2.2"/><rect class="fam-science" x="180.1" y="24" width="2.2" height="2.2"/><rect class="fam-science" x="180.1" y="27.1" width="2.2" height="2.2"/><rect class="fam-science" x="180.1" y="30.2" width="2.2" height="2.2"/><rect class="fam-science" x="180.1" y="33.3" width="2.2" height="2.2"/><rect class="fam-science" x="180.1" y="36.4" width="2.2" height="2.2"/><rect class="fam-science" x="180.1" y="39.5" width="2.2" height="2.2"/><rect class="fam-science" x="180.1" y="42.6" width="2.2" height="2.2"/><rect class="fam-science" x="183.2" y="24" width="2.2" height="2.2"/><rect class="fam-science" x="183.2" y="27.1" width="2.2" height="2.2"/><rect class="fam-science" x="183.2" y="30.2" width="2.2" height="2.2"/><rect class="fam-science" x="183.2" y="33.3" width="2.2" height="2.2"/><rect class="fam-science" x="183.2" y="36.4" width="2.2" height="2.2"/><rect class="fam-science" x="183.2" y="39.5" width="2.2" height="2.2"/><rect class="fam-science" x="183.2" y="42.6" width="2.2" height="2.2"/><rect class="fam-science" x="186.2" y="24" width="2.2" height="2.2"/><rect class="fam-science" x="186.2" y="27.1" width="2.2" height="2.2"/><rect class="fam-science" x="186.2" y="30.2" width="2.2" height="2.2"/><rect class="fam-science" x="186.2" y="33.3" width="2.2" height="2.2"/><rect class="fam-science" x="186.2" y="36.4" width="2.2" height="2.2"/><rect class="fam-science" x="186.2" y="39.5" width="2.2" height="2.2"/><rect class="fam-science" x="186.2" y="42.6" width="2.2" height="2.2"/><rect class="fam-science" x="189.3" y="24" width="2.2" height="2.2"/><rect class="fam-science" x="189.3" y="27.1" width="2.2" height="2.2"/><rect class="fam-science" x="189.3" y="30.2" width="2.2" height="2.2"/><rect class="fam-science" x="189.3" y="33.3" width="2.2" height="2.2"/><rect class="fam-science" x="189.3" y="36.4" width="2.2" height="2.2"/><rect class="fam-science" x="189.3" y="39.5" width="2.2" height="2.2"/><rect class="fam-science" x="189.3" y="42.6" width="2.2" height="2.2"/><rect class="fam-science" x="192.4" y="24" width="2.2" height="2.2"/><rect class="fam-science" x="192.4" y="27.1" width="2.2" height="2.2"/><rect class="fam-science" x="192.4" y="30.2" width="2.2" height="2.2"/><rect class="fam-science" x="192.4" y="33.3" width="2.2" height="2.2"/><rect class="fam-science" x="192.4" y="36.4" width="2.2" height="2.2"/><rect class="fam-science" x="192.4" y="39.5" width="2.2" height="2.2"/><rect class="fam-science" x="192.4" y="42.6" width="2.2" height="2.2"/><rect class="fam-science" x="195.6" y="24" width="2.2" height="2.2"/><rect class="fam-science" x="195.6" y="27.1" width="2.2" height="2.2"/><rect class="fam-science" x="195.6" y="30.2" width="2.2" height="2.2"/><rect class="fam-science" x="195.6" y="33.3" width="2.2" height="2.2"/><rect class="fam-science" x="195.6" y="36.4" width="2.2" height="2.2"/><rect class="fam-science" x="195.6" y="39.5" width="2.2" height="2.2"/><rect class="fam-science" x="195.6" y="42.6" width="2.2" height="2.2"/><rect class="fam-science" x="198.7" y="24" width="2.2" height="2.2"/><rect class="fam-ml" x="198.7" y="27.1" width="2.2" height="2.2"/><rect class="fam-ml" x="198.7" y="30.2" width="2.2" height="2.2"/><rect class="fam-ml" x="198.7" y="33.3" width="2.2" height="2.2"/><rect class="fam-ml" x="198.7" y="36.4" width="2.2" height="2.2"/><rect class="fam-ml" x="198.7" y="39.5" width="2.2" height="2.2"/><rect class="fam-ml" x="198.7" y="42.6" width="2.2" height="2.2"/><rect class="fam-ml" x="201.8" y="24" width="2.2" height="2.2"/><rect class="fam-ml" x="201.8" y="27.1" width="2.2" height="2.2"/><rect class="fam-ml" x="201.8" y="30.2" width="2.2" height="2.2"/><rect class="fam-ml" x="201.8" y="33.3" width="2.2" height="2.2"/><rect class="fam-ml" x="201.8" y="36.4" width="2.2" height="2.2"/><rect class="fam-ml" x="201.8" y="39.5" width="2.2" height="2.2"/><rect class="fam-ml" x="201.8" y="42.6" width="2.2" height="2.2"/><rect class="fam-ml" x="204.8" y="24" width="2.2" height="2.2"/><rect class="fam-ml" x="204.8" y="27.1" width="2.2" height="2.2"/><rect class="fam-ml" x="204.8" y="30.2" width="2.2" height="2.2"/><rect class="fam-ml" x="204.8" y="33.3" width="2.2" height="2.2"/><rect class="fam-ml" x="204.8" y="36.4" width="2.2" height="2.2"/><rect class="fam-ml" x="204.8" y="39.5" width="2.2" height="2.2"/><rect class="fam-ml" x="204.8" y="42.6" width="2.2" height="2.2"/><rect class="fam-ml" x="207.9" y="24" width="2.2" height="2.2"/><rect class="fam-ml" x="207.9" y="27.1" width="2.2" height="2.2"/><rect class="fam-ml" x="207.9" y="30.2" width="2.2" height="2.2"/><rect class="fam-ml" x="207.9" y="33.3" width="2.2" height="2.2"/><rect class="fam-ml" x="207.9" y="36.4" width="2.2" height="2.2"/><rect class="fam-ml" x="207.9" y="39.5" width="2.2" height="2.2"/><rect class="fam-ml" x="207.9" y="42.6" width="2.2" height="2.2"/><rect class="fam-ml" x="211.1" y="24" width="2.2" height="2.2"/><rect class="fam-ml" x="211.1" y="27.1" width="2.2" height="2.2"/><rect class="fam-ml" x="211.1" y="30.2" width="2.2" height="2.2"/><rect class="fam-ml" x="211.1" y="33.3" width="2.2" height="2.2"/><rect class="fam-ml" x="211.1" y="36.4" width="2.2" height="2.2"/><rect class="fam-ml" x="211.1" y="39.5" width="2.2" height="2.2"/><rect class="fam-ml" x="211.1" y="42.6" width="2.2" height="2.2"/><rect class="fam-ml" x="214.1" y="24" width="2.2" height="2.2"/><rect class="fam-ml" x="214.1" y="27.1" width="2.2" height="2.2"/><rect class="fam-ml" x="214.1" y="30.2" width="2.2" height="2.2"/><rect class="fam-ml" x="214.1" y="33.3" width="2.2" height="2.2"/><rect class="fam-ml" x="214.1" y="36.4" width="2.2" height="2.2"/><rect class="fam-ml" x="214.1" y="39.5" width="2.2" height="2.2"/><rect class="fam-ml" x="214.1" y="42.6" width="2.2" height="2.2"/><rect class="fam-ml" x="217.2" y="24" width="2.2" height="2.2"/><rect class="fam-ml" x="217.2" y="27.1" width="2.2" height="2.2"/><rect class="fam-ml" x="217.2" y="30.2" width="2.2" height="2.2"/><rect class="fam-ml" x="217.2" y="33.3" width="2.2" height="2.2"/><rect class="fam-ml" x="217.2" y="36.4" width="2.2" height="2.2"/><rect class="fam-ml" x="217.2" y="39.5" width="2.2" height="2.2"/><rect class="fam-ml" x="217.2" y="42.6" width="2.2" height="2.2"/><rect class="fam-ml" x="220.3" y="24" width="2.2" height="2.2"/><rect class="fam-ml" x="220.3" y="27.1" width="2.2" height="2.2"/><rect class="fam-ml" x="220.3" y="30.2" width="2.2" height="2.2"/><rect class="fam-ml" x="220.3" y="33.3" width="2.2" height="2.2"/><rect class="fam-ml" x="220.3" y="36.4" width="2.2" height="2.2"/><rect class="fam-ml" x="220.3" y="39.5" width="2.2" height="2.2"/><rect class="fam-ml" x="220.3" y="42.6" width="2.2" height="2.2"/><rect class="fam-ml" x="223.4" y="24" width="2.2" height="2.2"/><rect class="fam-ml" x="223.4" y="27.1" width="2.2" height="2.2"/><rect class="fam-ml" x="223.4" y="30.2" width="2.2" height="2.2"/><rect class="fam-ml" x="223.4" y="33.3" width="2.2" height="2.2"/><rect class="fam-ml" x="223.4" y="36.4" width="2.2" height="2.2"/><rect class="fam-ml" x="223.4" y="39.5" width="2.2" height="2.2"/><rect class="fam-ml" x="223.4" y="42.6" width="2.2" height="2.2"/><rect class="fam-ml" x="226.6" y="24" width="2.2" height="2.2"/><rect class="fam-ml" x="226.6" y="27.1" width="2.2" height="2.2"/><rect class="fam-ml" x="226.6" y="30.2" width="2.2" height="2.2"/><rect class="fam-ml" x="226.6" y="33.3" width="2.2" height="2.2"/><rect class="fam-ml" x="226.6" y="36.4" width="2.2" height="2.2"/><rect class="fam-ml" x="226.6" y="39.5" width="2.2" height="2.2"/><rect class="fam-ml" x="226.6" y="42.6" width="2.2" height="2.2"/><rect class="fam-ml" x="229.6" y="24" width="2.2" height="2.2"/><rect class="fam-ml" x="229.6" y="27.1" width="2.2" height="2.2"/><rect class="fam-ml" x="229.6" y="30.2" width="2.2" height="2.2"/><rect class="fam-ml" x="229.6" y="33.3" width="2.2" height="2.2"/><rect class="fam-ml" x="229.6" y="36.4" width="2.2" height="2.2"/><rect class="fam-ml" x="229.6" y="39.5" width="2.2" height="2.2"/><rect class="fam-ml" x="229.6" y="42.6" width="2.2" height="2.2"/><rect class="fam-ml" x="232.8" y="24" width="2.2" height="2.2"/><rect class="fam-ml" x="232.8" y="27.1" width="2.2" height="2.2"/><rect class="fam-ml" x="232.8" y="30.2" width="2.2" height="2.2"/><rect class="fam-ml" x="232.8" y="33.3" width="2.2" height="2.2"/><rect class="fam-ml" x="232.8" y="36.4" width="2.2" height="2.2"/><rect class="fam-ml" x="232.8" y="39.5" width="2.2" height="2.2"/><rect class="fam-ml" x="232.8" y="42.6" width="2.2" height="2.2"/><rect class="fam-ml" x="235.8" y="24" width="2.2" height="2.2"/><rect class="fam-ml" x="235.8" y="27.1" width="2.2" height="2.2"/><rect class="fam-ml" x="235.8" y="30.2" width="2.2" height="2.2"/><rect class="fam-ml" x="235.8" y="33.3" width="2.2" height="2.2"/><rect class="fam-ml" x="235.8" y="36.4" width="2.2" height="2.2"/><rect class="fam-ml" x="235.8" y="39.5" width="2.2" height="2.2"/><rect class="fam-ml" x="235.8" y="42.6" width="2.2" height="2.2"/><rect class="fam-ml" x="238.9" y="24" width="2.2" height="2.2"/><rect class="fam-data" x="238.9" y="27.1" width="2.2" height="2.2"/><rect class="fam-data" x="238.9" y="30.2" width="2.2" height="2.2"/><rect class="fam-data" x="238.9" y="33.3" width="2.2" height="2.2"/><rect class="fam-data" x="238.9" y="36.4" width="2.2" height="2.2"/><rect class="fam-data" x="238.9" y="39.5" width="2.2" height="2.2"/><rect class="fam-data" x="238.9" y="42.6" width="2.2" height="2.2"/><rect class="fam-data" x="242.1" y="24" width="2.2" height="2.2"/><rect class="fam-data" x="242.1" y="27.1" width="2.2" height="2.2"/><rect class="fam-data" x="242.1" y="30.2" width="2.2" height="2.2"/><rect class="fam-data" x="242.1" y="33.3" width="2.2" height="2.2"/><rect class="fam-data" x="242.1" y="36.4" width="2.2" height="2.2"/><rect class="fam-data" x="242.1" y="39.5" width="2.2" height="2.2"/><rect class="fam-data" x="242.1" y="42.6" width="2.2" height="2.2"/><rect class="fam-data" x="245.1" y="24" width="2.2" height="2.2"/><rect class="fam-data" x="245.1" y="27.1" width="2.2" height="2.2"/><rect class="fam-data" x="245.1" y="30.2" width="2.2" height="2.2"/><rect class="fam-data" x="245.1" y="33.3" width="2.2" height="2.2"/><rect class="fam-data" x="245.1" y="36.4" width="2.2" height="2.2"/><rect class="fam-data" x="245.1" y="39.5" width="2.2" height="2.2"/><rect class="fam-data" x="245.1" y="42.6" width="2.2" height="2.2"/><rect class="fam-data" x="248.2" y="24" width="2.2" height="2.2"/><rect class="fam-data" x="248.2" y="27.1" width="2.2" height="2.2"/><rect class="fam-data" x="248.2" y="30.2" width="2.2" height="2.2"/><rect class="fam-data" x="248.2" y="33.3" width="2.2" height="2.2"/><rect class="fam-data" x="248.2" y="36.4" width="2.2" height="2.2"/><rect class="fam-data" x="248.2" y="39.5" width="2.2" height="2.2"/><rect class="fam-data" x="248.2" y="42.6" width="2.2" height="2.2"/><rect class="fam-data" x="251.3" y="24" width="2.2" height="2.2"/><rect class="fam-data" x="251.3" y="27.1" width="2.2" height="2.2"/><rect class="fam-data" x="251.3" y="30.2" width="2.2" height="2.2"/><rect class="fam-data" x="251.3" y="33.3" width="2.2" height="2.2"/><rect class="fam-data" x="251.3" y="36.4" width="2.2" height="2.2"/><rect class="fam-data" x="251.3" y="39.5" width="2.2" height="2.2"/><rect class="fam-data" x="251.3" y="42.6" width="2.2" height="2.2"/><rect class="fam-data" x="254.4" y="24" width="2.2" height="2.2"/><rect class="fam-data" x="254.4" y="27.1" width="2.2" height="2.2"/><rect class="fam-data" x="254.4" y="30.2" width="2.2" height="2.2"/><rect class="fam-data" x="254.4" y="33.3" width="2.2" height="2.2"/><rect class="fam-data" x="254.4" y="36.4" width="2.2" height="2.2"/><rect class="fam-data" x="254.4" y="39.5" width="2.2" height="2.2"/><rect class="fam-data" x="254.4" y="42.6" width="2.2" height="2.2"/><rect class="fam-data" x="257.6" y="24" width="2.2" height="2.2"/><rect class="fam-data" x="257.6" y="27.1" width="2.2" height="2.2"/><rect class="fam-data" x="257.6" y="30.2" width="2.2" height="2.2"/><rect class="fam-data" x="257.6" y="33.3" width="2.2" height="2.2"/><rect class="fam-data" x="257.6" y="36.4" width="2.2" height="2.2"/><rect class="fam-data" x="257.6" y="39.5" width="2.2" height="2.2"/><rect class="fam-data" x="257.6" y="42.6" width="2.2" height="2.2"/><rect class="fam-data" x="260.6" y="24" width="2.2" height="2.2"/><rect class="fam-data" x="260.6" y="27.1" width="2.2" height="2.2"/><rect class="fam-data" x="260.6" y="30.2" width="2.2" height="2.2"/><rect class="fam-data" x="260.6" y="33.3" width="2.2" height="2.2"/><rect class="fam-data" x="260.6" y="36.4" width="2.2" height="2.2"/><rect class="fam-data" x="260.6" y="39.5" width="2.2" height="2.2"/><rect class="fam-data" x="260.6" y="42.6" width="2.2" height="2.2"/><rect class="fam-data" x="263.8" y="24" width="2.2" height="2.2"/><rect class="fam-data" x="263.8" y="27.1" width="2.2" height="2.2"/><rect class="fam-data" x="263.8" y="30.2" width="2.2" height="2.2"/><rect class="fam-data" x="263.8" y="33.3" width="2.2" height="2.2"/><rect class="fam-data" x="263.8" y="36.4" width="2.2" height="2.2"/><rect class="fam-data" x="263.8" y="39.5" width="2.2" height="2.2"/><rect class="fam-data" x="263.8" y="42.6" width="2.2" height="2.2"/><rect class="fam-data" x="266.9" y="24" width="2.2" height="2.2"/><rect class="fam-data" x="266.9" y="27.1" width="2.2" height="2.2"/><rect class="fam-data" x="266.9" y="30.2" width="2.2" height="2.2"/><rect class="fam-data" x="266.9" y="33.3" width="2.2" height="2.2"/><rect class="fam-data" x="266.9" y="36.4" width="2.2" height="2.2"/><rect class="fam-data" x="266.9" y="39.5" width="2.2" height="2.2"/><rect class="fam-data" x="266.9" y="42.6" width="2.2" height="2.2"/><rect class="fam-data" x="269.9" y="24" width="2.2" height="2.2"/><rect class="fam-data" x="269.9" y="27.1" width="2.2" height="2.2"/><rect class="fam-data" x="269.9" y="30.2" width="2.2" height="2.2"/><rect class="fam-data" x="269.9" y="33.3" width="2.2" height="2.2"/><rect class="fam-data" x="269.9" y="36.4" width="2.2" height="2.2"/><rect class="fam-data" x="269.9" y="39.5" width="2.2" height="2.2"/><rect class="fam-data" x="269.9" y="42.6" width="2.2" height="2.2"/><rect class="fam-data" x="273.1" y="24" width="2.2" height="2.2"/><rect class="fam-data" x="273.1" y="27.1" width="2.2" height="2.2"/><rect class="fam-data" x="273.1" y="30.2" width="2.2" height="2.2"/><rect class="fam-data" x="273.1" y="33.3" width="2.2" height="2.2"/><rect class="fam-data" x="273.1" y="36.4" width="2.2" height="2.2"/><rect class="fam-data" x="273.1" y="39.5" width="2.2" height="2.2"/><rect class="fam-data" x="273.1" y="42.6" width="2.2" height="2.2"/><rect class="fam-data" x="276.1" y="24" width="2.2" height="2.2"/><rect class="fam-craft" x="276.1" y="27.1" width="2.2" height="2.2"/><rect class="fam-craft" x="276.1" y="30.2" width="2.2" height="2.2"/><rect class="fam-craft" x="276.1" y="33.3" width="2.2" height="2.2"/><rect class="fam-craft" x="276.1" y="36.4" width="2.2" height="2.2"/><rect class="fam-craft" x="276.1" y="39.5" width="2.2" height="2.2"/><rect class="fam-craft" x="276.1" y="42.6" width="2.2" height="2.2"/><rect class="fam-craft" x="279.2" y="24" width="2.2" height="2.2"/><rect class="fam-craft" x="279.2" y="27.1" width="2.2" height="2.2"/><rect class="fam-craft" x="279.2" y="30.2" width="2.2" height="2.2"/><rect class="fam-craft" x="279.2" y="33.3" width="2.2" height="2.2"/><rect class="fam-craft" x="279.2" y="36.4" width="2.2" height="2.2"/><rect class="fam-craft" x="279.2" y="39.5" width="2.2" height="2.2"/><rect class="fam-craft" x="279.2" y="42.6" width="2.2" height="2.2"/><rect class="fam-craft" x="282.4" y="24" width="2.2" height="2.2"/><rect class="fam-craft" x="282.4" y="27.1" width="2.2" height="2.2"/><rect class="fam-craft" x="282.4" y="30.2" width="2.2" height="2.2"/><rect class="fam-craft" x="282.4" y="33.3" width="2.2" height="2.2"/><rect class="fam-craft" x="282.4" y="36.4" width="2.2" height="2.2"/><rect class="fam-craft" x="282.4" y="39.5" width="2.2" height="2.2"/><rect class="fam-craft" x="282.4" y="42.6" width="2.2" height="2.2"/><rect class="fam-craft" x="285.4" y="24" width="2.2" height="2.2"/><rect class="fam-craft" x="285.4" y="27.1" width="2.2" height="2.2"/><rect class="fam-craft" x="285.4" y="30.2" width="2.2" height="2.2"/><rect class="fam-craft" x="285.4" y="33.3" width="2.2" height="2.2"/><rect class="fam-craft" x="285.4" y="36.4" width="2.2" height="2.2"/><rect class="fam-craft" x="285.4" y="39.5" width="2.2" height="2.2"/><rect class="fam-craft" x="285.4" y="42.6" width="2.2" height="2.2"/><rect class="fam-craft" x="288.6" y="24" width="2.2" height="2.2"/><rect class="fam-craft" x="288.6" y="27.1" width="2.2" height="2.2"/><rect class="fam-craft" x="288.6" y="30.2" width="2.2" height="2.2"/><rect class="fam-craft" x="288.6" y="33.3" width="2.2" height="2.2"/><rect class="fam-craft" x="288.6" y="36.4" width="2.2" height="2.2"/><rect class="fam-craft" x="288.6" y="39.5" width="2.2" height="2.2"/><rect class="fam-craft" x="288.6" y="42.6" width="2.2" height="2.2"/><rect class="fam-craft" x="291.6" y="24" width="2.2" height="2.2"/><rect class="fam-craft" x="291.6" y="27.1" width="2.2" height="2.2"/><rect class="fam-craft" x="291.6" y="30.2" width="2.2" height="2.2"/><rect class="fam-craft" x="291.6" y="33.3" width="2.2" height="2.2"/><rect class="fam-craft" x="291.6" y="36.4" width="2.2" height="2.2"/><rect class="fam-craft" x="291.6" y="39.5" width="2.2" height="2.2"/><rect class="fam-craft" x="291.6" y="42.6" width="2.2" height="2.2"/><rect class="fam-craft" x="294.8" y="24" width="2.2" height="2.2"/><rect class="fam-craft" x="294.8" y="27.1" width="2.2" height="2.2"/><rect class="fam-craft" x="294.8" y="30.2" width="2.2" height="2.2"/><rect class="fam-craft" x="294.8" y="33.3" width="2.2" height="2.2"/><rect class="fam-craft" x="294.8" y="36.4" width="2.2" height="2.2"/><rect class="fam-craft" x="294.8" y="39.5" width="2.2" height="2.2"/><rect class="fam-craft" x="294.8" y="42.6" width="2.2" height="2.2"/><rect class="fam-craft" x="297.9" y="24" width="2.2" height="2.2"/><rect class="fam-craft" x="297.9" y="27.1" width="2.2" height="2.2"/><rect class="fam-craft" x="297.9" y="30.2" width="2.2" height="2.2"/><rect class="fam-craft" x="297.9" y="33.3" width="2.2" height="2.2"/><rect class="fam-craft" x="297.9" y="36.4" width="2.2" height="2.2"/><rect class="fam-craft" x="297.9" y="39.5" width="2.2" height="2.2"/><rect class="fam-craft" x="297.9" y="42.6" width="2.2" height="2.2"/><rect class="fam-craft" x="300.9" y="24" width="2.2" height="2.2"/><rect class="fam-craft" x="300.9" y="27.1" width="2.2" height="2.2"/><rect class="fam-craft" x="300.9" y="30.2" width="2.2" height="2.2"/><rect class="fam-craft" x="300.9" y="33.3" width="2.2" height="2.2"/><rect class="fam-craft" x="300.9" y="36.4" width="2.2" height="2.2"/><rect class="fam-craft" x="300.9" y="39.5" width="2.2" height="2.2"/><rect class="fam-craft" x="300.9" y="42.6" width="2.2" height="2.2"/><rect class="fam-craft" x="304.1" y="24" width="2.2" height="2.2"/><rect class="fam-craft" x="304.1" y="27.1" width="2.2" height="2.2"/><rect class="fam-craft" x="304.1" y="30.2" width="2.2" height="2.2"/><rect class="fam-craft" x="304.1" y="33.3" width="2.2" height="2.2"/><rect class="fam-craft" x="304.1" y="36.4" width="2.2" height="2.2"/><rect class="fam-craft" x="304.1" y="39.5" width="2.2" height="2.2"/><rect class="fam-craft" x="304.1" y="42.6" width="2.2" height="2.2"/><text class="lab" x="225" y="14" text-anchor="middle">371 skills, loaded on demand</text><path class="ln dash" d="M225 50.7V114" marker-end="url(#ag)"/><rect class="box" x="0" y="134" width="96" height="36" rx="3"/><text class="ink" x="48" y="156" text-anchor="middle">your goal</text><path class="ln acc" d="M96 152H147" marker-end="url(#aa)"/><rect class="box lead" x="150" y="118" width="150" height="68" rx="4"/><text class="ttl" x="225" y="149" text-anchor="middle">research agent</text><text class="lab" x="225" y="167" text-anchor="middle">lead: plans and synthesises</text><rect class="box" x="360" y="42" width="158" height="82" rx="3"/><text class="ink" x="372" y="60">tools</text><text class="item" x="372" y="76">shell</text><text class="item" x="372" y="90">Python and R kernels</text><text class="item" x="372" y="104">files</text><text class="item" x="372" y="118">literature, 42 databases</text><rect class="box" x="360" y="174" width="158" height="68" rx="3"/><text class="ink" x="372" y="192">compute</text><text class="item" x="372" y="208">local machine</text><text class="item" x="372" y="222">SSH, Slurm, PBS</text><text class="item" x="372" y="236">Modal</text><path class="ln" d="M300 134H330V83.0H357" marker-end="url(#ag)"/><path class="ln" d="M300 170H330V208.0H357" marker-end="url(#ag)"/><path class="ln acc" d="M300 152H553" marker-end="url(#aa)"/><rect class="box" x="556" y="128" width="93" height="48" rx="3"/><text class="ink" x="602.5" y="149" text-anchor="middle">Results</text><text class="lab" x="602.5" y="165" text-anchor="middle">with provenance</text><rect class="pill" x="2.6" y="286" width="62.1" height="20" rx="10"/><text class="mono" x="33.6" y="299.5" text-anchor="middle">explore</text><rect class="pill" x="72.7" y="286" width="62.1" height="20" rx="10"/><text class="mono" x="103.7" y="299.5" text-anchor="middle">general</text><rect class="pill" x="142.8" y="286" width="30.6" height="20" rx="10"/><text class="mono" x="158.1" y="299.5" text-anchor="middle">ml</text><rect class="pill" x="181.3" y="286" width="62.1" height="20" rx="10"/><text class="mono" x="212.4" y="299.5" text-anchor="middle">biology</text><rect class="pill" x="251.4" y="286" width="62.1" height="20" rx="10"/><text class="mono" x="282.5" y="299.5" text-anchor="middle">physics</text><rect class="pill" x="321.5" y="286" width="74.7" height="20" rx="10"/><text class="mono" x="358.9" y="299.5" text-anchor="middle">chemistry</text><rect class="pill" x="404.2" y="286" width="43.2" height="20" rx="10"/><text class="mono" x="425.8" y="299.5" text-anchor="middle">data</text><path class="ln" d="M33.6 272H425.8"/><path class="ln" d="M33.6 272V285"/><path class="ln" d="M103.7 272V285"/><path class="ln" d="M158.1 272V285"/><path class="ln" d="M212.4 272V285"/><path class="ln" d="M282.5 272V285"/><path class="ln" d="M358.9 272V285"/><path class="ln" d="M425.8 272V285"/><path class="ln flow" d="M211 188V269" marker-end="url(#ag)"/><path class="ln flow rev" d="M239 272V191" marker-end="url(#ag)"/><text class="lab" x="205" y="232" text-anchor="end">brief</text><text class="lab" x="245" y="232">report and verification</text><circle class="pulse" r="3"><animateMotion dur="3.6s" repeatCount="indefinite" path="M96 152H552" keyPoints="0;1" keyTimes="0;1" calcMode="linear"/></circle></svg>
