<svg class="bifurcation" viewBox="0 0 680 90" role="img" aria-label="Bifurcation diagram of the logistic map"><path d="M0 32h1M1 32h1M2 32h1M3 32h1M4 32h1M5 32h1M6 32h1M7 32h1M8 32h1M9 32h1M10 32h1M11 32h1M12 32h1M13 32h1M14 32h1M15 32h1M16 32h1M17 32h1M18 32h1M19 32h1M20 32h1M21 32h1M22 32h1M23 32h1M24 32h1M25 32h1M26 32h1M27 32h1M28 31h1M29 31h1M30 31h1M31 31h1M32 31h1M33 31h1M34 31h1M35 31h1M36 31h1M37 31h1M38 31h1M39 31h1M40 31h1M41 31h1M42 31h1M43 31h1M44 31h1M45 31h1M46 31h1M47 31h1M48 31h1M49 31h1M50 31h1M51 31h1M52 31h1M53 31h1M54 31h1M55 31h1M56 31h1M57 31h1M58 31h1M59 31h1M60 31h1M61 31h1M62 31h1M63 31h1M64 31h1M65 31h1M66 31h1M67 31h1M68 31h1M69 31h1M70 31h1M71 31h1M72 31h1M73 31h1M74 31h1M75 31h1M76 31h1M77 31h1M78 31h1M79 31h1M80 31h1M81 31h1M82 31h1M83 31h1M84 31h1M85 30h1M85 31h1M86 30h1M86 31h1M87 30h1M87 31h1M88 30h1M88 31h1M89 29h1M89 32h1M89 30h1M90 29h1M90 32h1M91 29h1M91 32h1M92 28h1M92 33h1M93 28h1M93 33h1M94 28h1M94 33h1M95 28h1M95 33h1M96 27h1M96 34h1M97 27h1M97 34h1M98 27h1M98 34h1M99 27h1M99 34h1M100 27h1M100 34h1M101 27h1M101 35h1M102 26h1M102 35h1M103 26h1M103 35h1M104 26h1M104 35h1M105 26h1M105 35h1M106 26h1M106 35h1M107 26h1M107 36h1M108 26h1M108 36h1M109 25h1M109 36h1M110 25h1M110 36h1M111 25h1M111 36h1M112 25h1M112 36h1M113 25h1M113 36h1M114 25h1M114 36h1M115 25h1M115 37h1M116 25h1M116 37h1M117 25h1M117 37h1M118 25h1M118 37h1M119 24h1M119 37h1M120 24h1M120 37h1M121 24h1M121 37h1M122 24h1M122 37h1M123 24h1M123 37h1M124 24h1M124 38h1M125 24h1M125 38h1M126 24h1M126 38h1M127 24h1M127 38h1M128 24h1M128 38h1M129 24h1M129 38h1M130 24h1M130 38h1M131 23h1M131 38h1M132 23h1M132 38h1M133 23h1M133 38h1M134 23h1M134 38h1M135 23h1M135 39h1M136 23h1M136 39h1M137 23h1M137 39h1M138 23h1M138 39h1M139 23h1M139 39h1M140 23h1M140 39h1M141 23h1M141 39h1M142 23h1M142 39h1M143 23h1M143 39h1M144 23h1M144 39h1M145 22h1M145 39h1M146 22h1M146 40h1M147 22h1M147 40h1M148 22h1M148 40h1M149 22h1M149 40h1M150 22h1M150 40h1M151 22h1M151 40h1M152 22h1M152 40h1M153 22h1M153 40h1M154 22h1M154 40h1M155 22h1M155 40h1M156 22h1M156 40h1M157 22h1M157 40h1M158 22h1M158 40h1M159 22h1M159 40h1M160 22h1M160 41h1M161 21h1M161 41h1M162 21h1M162 41h1M163 21h1M163 41h1M164 21h1M164 41h1M165 21h1M165 41h1M166 21h1M166 41h1M167 21h1M167 41h1M168 21h1M168 41h1M169 21h1M169 41h1M170 21h1M170 41h1M171 21h1M171 41h1M172 21h1M172 41h1M173 21h1M173 41h1M174 21h1M174 41h1M175 21h1M175 42h1M176 21h1M176 42h1M177 21h1M177 42h1M178 21h1M178 42h1M179 21h1M179 42h1M180 21h1M180 42h1M181 20h1M181 42h1M182 20h1M182 42h1M183 20h1M183 42h1M184 20h1M184 42h1M185 20h1M185 42h1M186 20h1M186 42h1M187 20h1M187 42h1M188 20h1M188 42h1M189 20h1M189 42h1M190 20h1M190 42h1M191 20h1M191 43h1M192 20h1M192 43h1M193 20h1M193 43h1M194 20h1M194 43h1M195 20h1M195 43h1M196 20h1M196 43h1M197 20h1M197 43h1M198 20h1M198 43h1M199 20h1M199 43h1M200 20h1M200 43h1M201 20h1M201 43h1M202 20h1M202 43h1M203 19h1M203 43h1M204 19h1M204 43h1M205 19h1M205 43h1M206 19h1M206 43h1M207 19h1M207 43h1M208 19h1M208 43h1M209 19h1M209 44h1M210 19h1M210 44h1M211 19h1M211 44h1M212 19h1M212 44h1M213 19h1M213 44h1M214 19h1M214 44h1M215 19h1M215 44h1M216 19h1M216 44h1M217 19h1M217 44h1M218 19h1M218 44h1M219 19h1M219 44h1M220 19h1M220 44h1M221 19h1M221 44h1M222 19h1M222 44h1M223 19h1M223 44h1M224 19h1M224 44h1M225 19h1M225 44h1M226 19h1M226 44h1M227 19h1M227 44h1M228 19h1M228 45h1M229 19h1M229 45h1M230 18h1M230 45h1M231 18h1M231 45h1M232 18h1M232 45h1M233 18h1M233 45h1M234 18h1M234 45h1M235 18h1M235 45h1M236 18h1M236 45h1M237 18h1M237 45h1M238 18h1M238 45h1M239 18h1M239 45h1M240 18h1M240 45h1M241 18h1M241 45h1M242 18h1M242 45h1M243 18h1M243 45h1M244 18h1M244 45h1M245 18h1M245 45h1M246 18h1M246 45h1M247 18h1M247 45h1M248 18h1M248 45h1M249 18h1M249 45h1M250 18h1M250 46h1M251 18h1M251 46h1M252 18h1M252 46h1M253 18h1M253 46h1M254 18h1M254 46h1M255 18h1M255 46h1M256 18h1M256 46h1M257 18h1M257 46h1M258 18h1M258 46h1M259 18h1M259 46h1M260 17h1M260 46h1M261 17h1M261 46h1M262 17h1M262 46h1M263 17h1M263 46h1M264 17h1M264 46h1M265 17h1M265 46h1M266 17h1M266 46h1M267 17h1M267 46h1M268 17h1M268 46h1M269 17h1M269 46h1M270 17h1M270 46h1M271 17h1M271 46h1M272 17h1M272 46h1M273 17h1M273 47h1M274 17h1M274 47h1M275 17h1M275 47h1M276 17h1M276 47h1M277 17h1M277 47h1M278 17h1M278 47h1M279 17h1M279 47h1M280 17h1M280 47h1M281 17h1M281 47h1M282 17h1M282 47h1M283 17h1M283 47h1M284 17h1M284 47h1M285 17h1M285 47h1M286 17h1M286 47h1M287 17h1M287 47h1M288 17h1M288 47h1M289 17h1M289 47h1M290 17h1M290 47h1M291 17h1M291 47h1M292 17h1M292 47h1M293 17h1M293 47h1M294 17h1M294 47h1M295 16h1M295 47h1M296 16h1M296 47h1M297 16h1M297 48h1M298 16h1M298 48h1M299 16h1M299 48h1M300 16h1M300 48h1M301 16h1M301 48h1M302 16h1M302 48h1M303 16h1M303 48h1M304 16h1M304 48h1M305 16h1M305 48h1M306 16h1M306 48h1M307 16h1M307 48h1M308 16h1M308 48h1M309 16h1M309 48h1M310 16h1M310 48h1M311 16h1M311 48h1M312 16h1M312 48h1M313 16h1M313 48h1M314 16h1M314 48h1M315 16h1M315 48h1M316 16h1M316 48h1M317 16h1M317 48h1M318 16h1M318 48h1M319 16h1M319 48h1M320 16h1M320 48h1M321 16h1M321 48h1M322 16h1M322 48h1M323 16h1M323 48h1M324 16h1M324 49h1M325 16h1M325 49h1M326 16h1M326 49h1M327 16h1M327 49h1M328 16h1M328 49h1M329 16h1M329 49h1M330 16h1M330 49h1M331 16h1M331 49h1M332 16h1M332 49h1M333 16h1M333 49h1M334 16h1M334 49h1M335 16h1M335 49h1M336 15h1M336 49h1M337 15h1M337 49h1M338 15h1M338 49h1M339 15h1M339 49h1M340 15h1M340 49h1M341 15h1M341 49h1M342 15h1M342 49h1M343 15h1M343 49h1M344 15h1M344 49h1M345 15h1M345 49h1M346 15h1M346 49h1M347 15h1M347 49h1M348 15h1M348 49h1M349 15h1M349 49h1M350 15h1M350 49h1M351 15h1M351 49h1M352 15h1M352 49h1M353 15h1M353 50h1M353 49h1M354 15h1M354 50h1M354 49h1M355 15h1M355 50h1M355 49h1M356 15h1M356 51h1M356 16h1M356 48h1M357 14h1M357 51h1M357 16h1M357 48h1M358 14h1M358 51h1M358 16h1M358 48h1M359 14h1M359 52h1M359 16h1M359 47h1M360 14h1M360 52h1M360 16h1M360 47h1M361 14h1M361 52h1M361 16h1M361 47h1M362 14h1M362 52h1M362 16h1M362 47h1M363 14h1M363 52h1M363 16h1M363 47h1M364 14h1M364 52h1M364 16h1M364 47h1M365 14h1M365 53h1M365 16h1M365 46h1M366 14h1M366 53h1M366 16h1M366 46h1M367 14h1M367 53h1M367 16h1M367 46h1M368 14h1M368 53h1M368 16h1M368 46h1M369 14h1M369 53h1M369 17h1M369 46h1M370 14h1M370 53h1M370 17h1M370 46h1M371 14h1M371 53h1M371 17h1M371 46h1M372 13h1M372 53h1M372 17h1M372 46h1M373 13h1M373 53h1M373 17h1M373 45h1M374 13h1M374 54h1M374 17h1M374 45h1M375 13h1M375 54h1M375 17h1M375 45h1M376 13h1M376 54h1M376 17h1M376 45h1M377 13h1M377 54h1M377 17h1M377 45h1M378 13h1M378 54h1M378 17h1M378 45h1M379 13h1M379 54h1M379 17h1M379 45h1M380 13h1M380 54h1M380 17h1M380 45h1M381 13h1M381 54h1M381 17h1M381 45h1M382 13h1M382 54h1M382 17h1M382 45h1M383 13h1M383 54h1M383 17h1M383 44h1M384 13h1M384 54h1M384 17h1M384 44h1M385 13h1M385 54h1M385 17h1M385 44h1M386 13h1M386 55h1M386 17h1M386 44h1M387 13h1M387 55h1M387 17h1M387 44h1M388 13h1M388 55h1M388 17h1M388 44h1M389 13h1M389 55h1M389 17h1M389 44h1M390 13h1M390 55h1M390 17h1M390 44h1M391 13h1M391 55h1M391 17h1M391 44h1M392 13h1M392 55h1M392 17h1M392 44h1M393 13h1M393 55h1M393 17h1M393 44h1M394 13h1M394 55h1M394 17h1M394 44h1M395 13h1M395 55h1M395 17h1M395 44h1M396 13h1M396 55h1M396 17h1M396 43h1M397 13h1M397 55h1M397 17h1M397 43h1M398 13h1M398 55h1M398 17h1M398 43h1M399 13h1M399 55h1M399 17h1M399 43h1M400 12h1M400 55h1M400 17h1M400 43h1M401 12h1M401 55h1M401 17h1M401 43h1M402 12h1M402 56h1M402 17h1M402 43h1M403 12h1M403 56h1M403 18h1M403 43h1M404 12h1M404 56h1M404 18h1M404 43h1M405 12h1M405 56h1M405 18h1M405 43h1M406 12h1M406 56h1M406 18h1M406 43h1M407 12h1M407 56h1M407 18h1M407 43h1M408 12h1M408 56h1M408 18h1M408 43h1M409 12h1M409 56h1M409 18h1M409 43h1M410 12h1M410 56h1M410 17h1M410 43h1M410 18h1M410 42h1M411 12h1M411 56h1M411 17h1M411 43h1M411 18h1M411 42h1M412 12h1M412 56h1M412 17h1M412 44h1M412 57h1M412 18h1M412 41h1M413 12h1M413 55h1M413 17h1M413 44h1M413 57h1M413 18h1M413 41h1M414 12h1M414 55h1M414 17h1M414 44h1M414 57h1M414 18h1M414 41h1M415 12h1M415 55h1M415 17h1M415 44h1M415 57h1M415 18h1M415 41h1M416 12h1M416 55h1M416 17h1M416 44h1M416 57h1M416 18h1M416 41h1M417 12h1M417 55h1M417 17h1M417 45h1M417 57h1M417 18h1M417 41h1M418 13h1M418 55h1M418 17h1M418 45h1M418 12h1M418 57h1M418 19h1M418 40h1M419 13h1M419 55h1M419 17h1M419 45h1M419 12h1M419 57h1M419 19h1M419 40h1M420 13h1M420 55h1M420 16h1M420 45h1M420 12h1M420 57h1M420 19h1M420 40h1M421 13h1M421 55h1M421 16h1M421 45h1M421 12h1M421 57h1M421 19h1M421 40h1M422 13h1M422 55h1M422 16h1M422 46h1M422 12h1M422 57h1M422 19h1M422 40h1M422 45h1M423 13h1M423 55h1M423 16h1M423 46h1M423 12h1M423 57h1M423 19h1M423 40h1M423 17h1M423 45h1M423 58h1M424 13h1M424 55h1M424 16h1M424 46h1M424 12h1M424 57h1M424 18h1M424 40h1M424 56h1M424 17h1M424 44h1M424 58h1M424 19h1M424 39h1M425 13h1M425 55h1M425 16h1M425 46h1M425 12h1M425 57h1M425 19h1M425 40h1M425 17h1M425 44h1M425 58h1M425 39h1M425 47h1M425 18h1M425 56h1M425 45h1M426 12h1M426 55h1M426 16h1M426 45h1M426 58h1M426 19h1M426 39h1M426 13h1M426 46h1M426 57h1M426 40h1M426 17h1M426 54h1M426 47h1M426 18h1M426 41h1M426 56h1M426 43h1M426 11h1M427 13h1M427 54h1M427 16h1M427 47h1M427 12h1M427 57h1M427 18h1M427 41h1M427 56h1M427 17h1M427 43h1M427 58h1M427 19h1M427 39h1M427 55h1M427 46h1M427 40h1M427 45h1M427 11h1M428 13h1M428 55h1M428 16h1M428 46h1M428 12h1M428 58h1M428 19h1M428 40h1M428 45h1M428 11h1M428 39h1M428 54h1M428 47h1M428 57h1M428 18h1M428 41h1M428 56h1M428 17h1M428 43h1M428 15h1M428 42h1M429 12h1M429 57h1M429 18h1M429 41h1M429 42h1M429 40h1M429 56h1M429 17h1M429 43h1M429 11h1M429 58h1M429 19h1M429 39h1M429 13h1M429 55h1M429 16h1M429 47h1M429 45h1M429 54h1M429 15h1M429 48h1M429 44h1M430 13h1M430 54h1M430 16h1M430 47h1M430 12h1M430 57h1M430 18h1M430 40h1M430 56h1M430 17h1M430 43h1M430 11h1M430 58h1M430 19h1M430 39h1M430 55h1M430 44h1M430 38h1M430 15h1M430 48h1M430 42h1M430 45h1M431 11h1M431 58h1M431 19h1M431 39h1M431 12h1M431 55h1M431 16h1M431 46h1M431 13h1M431 54h1M431 15h1M431 48h1M431 57h1M431 18h1M431 41h1M431 42h1M431 40h1M431 56h1M431 17h1M431 43h1M431 47h1M431 45h1M432 11h1M432 58h1M432 19h1M432 39h1M432 13h1M432 54h1M432 15h1M432 48h1M432 12h1M432 57h1M432 18h1M432 41h1M432 42h1M432 40h1M432 56h1M432 17h1M432 43h1M432 55h1M432 16h1M432 47h1M432 45h1M432 38h1M432 49h1M432 44h1M433 12h1M433 56h1M433 17h1M433 45h1M433 11h1M433 58h1M433 20h1M433 38h1M433 13h1M433 53h1M433 15h1M433 50h1M433 55h1M433 16h1M433 19h1M433 49h1M433 44h1M434 12h1M434 56h1M434 17h1M434 43h1M434 11h1M434 58h1M434 19h1M434 39h1M434 13h1M434 54h1M434 15h1M434 47h1M434 40h1M434 44h1M434 38h1M434 53h1M434 49h1M434 16h1M434 45h1M434 20h1M434 14h1M434 50h1M434 55h1M434 46h1M434 48h1M434 57h1M434 18h1M434 41h1M434 42h1M435 12h1M435 57h1M435 18h1M435 42h1M435 58h1M435 40h1M435 56h1M435 17h1M435 43h1M435 11h1M435 19h1M435 38h1M435 13h1M435 54h1M435 15h1M435 49h1M435 44h1M435 59h1M435 20h1M435 53h1M435 14h1M435 50h1M435 55h1M435 16h1M435 47h1M435 39h1M435 46h1M435 48h1M435 41h1M436 12h1M436 57h1M436 18h1M436 41h1M436 42h1M436 11h1M436 58h1M436 19h1M436 40h1M436 56h1M436 17h1M436 44h1M436 59h1M436 20h1M436 38h1M436 13h1M436 53h1M436 14h1M436 50h1M436 55h1M436 16h1M436 47h1M436 39h1M436 46h1M436 45h1M436 37h1M436 51h1M436 54h1M436 15h1M436 48h1M437 13h1M437 53h1M437 14h1M437 51h1M437 54h1M437 15h1M437 49h1M437 12h1M437 57h1M437 17h1M437 43h1M437 11h1M437 58h1M437 19h1M437 38h1M437 48h1M437 18h1M437 41h1M437 40h1M437 56h1M437 44h1M437 59h1M437 20h1M437 37h1M437 50h1M437 55h1M437 16h1M437 46h1M438 12h1M438 56h1M438 17h1M438 43h1M438 11h1M438 59h1M438 20h1M438 38h1M438 13h1M438 53h1M438 14h1M438 50h1M438 55h1M438 16h1M438 47h1M438 58h1M438 19h1M438 39h1M438 15h1M438 45h1M438 37h1M438 52h1M438 51h1M438 46h1M438 54h1M438 48h1M438 40h1M439 12h1M439 56h1M439 16h1M439 45h1M439 11h1M439 59h1M439 20h1M439 37h1M439 13h1M439 52h1M439 14h1M439 53h1M439 51h1M439 50h1M439 55h1M439 54h1M439 15h1M439 49h1M439 17h1M439 44h1M439 43h1M440 14h1M440 52h1M440 13h1M440 53h1M440 51h1M440 54h1M440 15h1M440 49h1M440 12h1M440 56h1M440 17h1M440 44h1M440 11h1M440 59h1M440 20h1M440 37h1M440 57h1M440 42h1M440 58h1M440 19h1M440 38h1M440 48h1M440 18h1M440 41h1M440 40h1M441 19h1M441 39h1M441 12h1M441 55h1M441 16h1M441 47h1M441 11h1M441 59h1M441 38h1M441 13h1M441 54h1M441 15h1M441 49h1M441 57h1M441 17h1M441 43h1M441 20h1M441 37h1M441 53h1M441 14h1M441 51h1M441 58h1M441 46h1M441 56h1M441 44h1M441 52h1M442 12h1M442 55h1M442 16h1M442 46h1M442 11h1M442 59h1M442 20h1M442 37h1M442 13h1M442 52h1M442 14h1M442 53h1M442 50h1M442 51h1M442 54h1M442 15h1M442 49h1M442 57h1M442 18h1M442 42h1M442 58h1M442 19h1M442 38h1M442 48h1M442 40h1M442 17h1M442 43h1M442 56h1M442 44h1M442 36h1M443 14h1M443 51h1M443 13h1M443 54h1M443 15h1M443 48h1M443 11h1M443 58h1M443 18h1M443 40h1M443 12h1M443 57h1M443 42h1M443 19h1M443 39h1M443 55h1M443 16h1M443 46h1M443 59h1M443 20h1M443 36h1M443 52h1M443 53h1M443 50h1M443 47h1M443 38h1M443 56h1M443 17h1M443 44h1M443 43h1M443 37h1M443 49h1M444 14h1M444 51h1M444 13h1M444 55h1M444 15h1M444 47h1M444 11h1M444 58h1M444 19h1M444 39h1M444 12h1M444 16h1M444 46h1M444 59h1M444 20h1M444 36h1M444 52h1M444 53h1M444 48h1M444 54h1M444 49h1M444 57h1M444 17h1M444 42h1M444 37h1M444 40h1M444 56h1M444 43h1M445 14h1M445 51h1M445 13h1M445 54h1M445 15h1M445 48h1M445 11h1M445 58h1M445 19h1M445 40h1M445 12h1M445 57h1M445 17h1M445 43h1M445 59h1M445 20h1M445 37h1M445 52h1M445 53h1M445 50h1M445 56h1M445 16h1M445 45h1M445 36h1M445 55h1M445 46h1M445 18h1M445 41h1M445 39h1M446 11h1M446 60h1M446 21h1M446 35h1M446 14h1M446 50h1M446 12h1M446 56h1M446 16h1M446 45h1M447 21h1M447 35h1M447 14h1M447 50h1M447 12h1M447 57h1M447 17h1M447 43h1M447 11h1M447 59h1M447 20h1M447 36h1M447 55h1M447 16h1M447 46h1M447 51h1M447 13h1M447 54h1M447 15h1M447 49h1M447 18h1M447 42h1M447 38h1M447 52h1M447 53h1M447 58h1M447 40h1M447 41h1M448 11h1M448 58h1M448 18h1M448 40h1M448 41h1M448 19h1M448 12h1M448 57h1M448 17h1M448 43h1M448 59h1M448 20h1M448 36h1M448 14h1M448 51h1M448 55h1M448 15h1M448 47h1M448 38h1M448 13h1M448 54h1M448 49h1M448 42h1M448 48h1M448 39h1M448 56h1M448 16h1M448 45h1M448 60h1M448 21h1M448 35h1M448 50h1M448 44h1M448 52h1M449 20h1M449 36h1M449 14h1M449 51h1M449 13h1M449 54h1M449 15h1M449 49h1M449 11h1M449 57h1M449 18h1M449 41h1M449 58h1M449 19h1M449 39h1M449 12h1M449 56h1M449 16h1M449 45h1M449 60h1M449 21h1M449 35h1M449 59h1M449 38h1M449 55h1M449 48h1M449 47h1M449 37h1M449 53h1M449 52h1M449 50h1M449 17h1M449 44h1M450 13h1M450 53h1M450 14h1M450 51h1M450 12h1M450 55h1M450 15h1M450 47h1M450 11h1M450 59h1M450 20h1M450 37h1M450 48h1M450 58h1M450 19h1M450 39h1M450 56h1M450 16h1M450 45h1M450 60h1M450 21h1M450 35h1M450 49h1M450 18h1M450 40h1M450 57h1M450 41h1M450 38h1M450 54h1M450 50h1M451 11h1M451 58h1M451 19h1M451 39h1M451 12h1M451 56h1M451 16h1M451 45h1M451 60h1M451 21h1M451 35h1M451 15h1M451 48h1M451 57h1M451 17h1M451 43h1M451 49h1M451 18h1M451 41h1M451 46h1M451 42h1M451 59h1M451 20h1M451 37h1M451 13h1M451 54h1M451 14h1M451 50h1M452 11h1M452 58h1M452 19h1M452 39h1M452 12h1M452 56h1M452 16h1M452 45h1M452 60h1M452 21h1M452 34h1M452 15h1M452 48h1M452 59h1M452 38h1M452 13h1M452 54h1M452 57h1M452 17h1M452 43h1M452 35h1M452 14h1M452 50h1M452 49h1M452 18h1M452 40h1M452 41h1M453 14h1M453 52h1M453 13h1M453 54h1M453 49h1M453 12h1M453 57h1M453 18h1M453 42h1M453 11h1M453 59h1M453 20h1M453 37h1M453 53h1M453 15h1M453 58h1M453 41h1M453 19h1M453 38h1M453 55h1M453 48h1M453 39h1M453 56h1M453 16h1M453 45h1M453 60h1M453 21h1M453 34h1M453 50h1M453 47h1M454 18h1M454 41h1M454 11h1M454 59h1M454 20h1M454 37h1M454 13h1M454 53h1M454 14h1M454 51h1M454 12h1M454 56h1M454 16h1M454 46h1M454 60h1M454 21h1M454 34h1M454 15h1M454 48h1M454 19h1M454 38h1M454 55h1M454 47h1M454 35h1M454 50h1M454 45h1M454 52h1M454 49h1M454 58h1M454 40h1M455 13h1M455 54h1M455 14h1M455 50h1M455 12h1M455 57h1M455 17h1M455 43h1M455 11h1M455 60h1M455 21h1M455 35h1M455 15h1M455 49h1M455 58h1M455 18h1M455 41h1M455 59h1M455 19h1M455 39h1M455 56h1M455 16h1M455 45h1M455 10h1M455 34h1M455 47h1M455 44h1M455 40h1M456 21h1M456 34h1M456 15h1M456 47h1M456 11h1M456 59h1M456 20h1M456 36h1M456 13h1M456 53h1M456 52h1M456 54h1M456 14h1M456 51h1M456 12h1M456 56h1M456 16h1M456 45h1M456 10h1M456 60h1M456 46h1M456 35h1M456 49h1M456 58h1M456 18h1M456 40h1M456 41h1M456 19h1M456 38h1M456 55h1M456 48h1M457 18h1M457 41h1M457 11h1M457 59h1M457 19h1M457 38h1M457 12h1M457 56h1M457 16h1M457 45h1M457 10h1M457 61h1M457 21h1M457 33h1M457 46h1M457 60h1M457 34h1M457 15h1M457 47h1M457 20h1M457 35h1M457 14h1M457 51h1M457 36h1M457 13h1M457 52h1M457 54h1M457 50h1M457 17h1M457 44h1M457 22h1M457 49h1M457 58h1M457 40h1M457 39h1M457 57h1M458 10h1M458 61h1M458 22h1M458 33h1M458 16h1M458 45h1M458 21h1M458 46h1M458 60h1M458 34h1M458 47h1M458 11h1M458 15h1M458 49h1M458 58h1M458 19h1M458 39h1M458 12h1M458 57h1M458 17h1M458 43h1M458 48h1M458 59h1M458 20h1M458 36h1M458 13h1M458 53h1M458 52h1M458 14h1M458 51h1M458 55h1M458 37h1M458 54h1M458 50h1M458 18h1M458 42h1M459 22h1M459 33h1M459 16h1M459 45h1M459 10h1M459 61h1M460 22h1M460 33h1M460 17h1M460 44h1M460 10h1M460 61h1M461 22h1M461 33h1M461 16h1M461 44h1M461 10h1M461 61h1M461 32h1M461 17h1M462 22h1M462 33h1M462 16h1M462 44h1M462 10h1M462 61h1M462 32h1M462 17h1M462 43h1M462 45h1M463 22h1M463 32h1M463 17h1M463 43h1M463 10h1M463 61h1M463 33h1M463 16h1M463 45h1M463 42h1M463 21h1M463 46h1M463 44h1M464 14h1M464 51h1M464 12h1M464 57h1M464 17h1M464 44h1M464 10h1M464 61h1M464 22h1M464 32h1M464 42h1M464 21h1M464 34h1M464 15h1M464 47h1M464 60h1M464 48h1M464 11h1M464 20h1M464 35h1M464 56h1M464 16h1M464 46h1M464 43h1M464 33h1M464 45h1M465 19h1M465 39h1M465 11h1M465 57h1M465 17h1M465 42h1M465 10h1M465 61h1M465 22h1M465 33h1M465 16h1M465 45h1M465 32h1M465 21h1M465 46h1M465 44h1M465 31h1M465 18h1M465 60h1M465 34h1M465 15h1M465 49h1M465 59h1M465 38h1M465 12h1M465 56h1M466 17h1M466 42h1M466 10h1M466 60h1M466 21h1M466 34h1M466 15h1M466 48h1M466 11h1M466 35h1M466 14h1M466 50h1M466 58h1M466 18h1M466 40h1M466 59h1M466 19h1M466 38h1M466 12h1M466 55h1M466 47h1M466 61h1M466 33h1M466 22h1M466 16h1M466 45h1M466 31h1M466 41h1M466 20h1M466 51h1M466 56h1M466 36h1M466 13h1M466 52h1M466 54h1M466 57h1M466 44h1M467 11h1M467 59h1M467 19h1M467 38h1M467 12h1M467 56h1M467 16h1M467 45h1M467 10h1M467 61h1M467 23h1M467 31h1M467 18h1M467 41h1M467 20h1M467 37h1M467 13h1M467 54h1M467 14h1M467 51h1M467 46h1M467 22h1M467 32h1M467 17h1M467 44h1M467 60h1M467 36h1M467 53h1M467 52h1M467 55h1M467 15h1M467 48h1M467 35h1M467 57h1M467 62h1M467 40h1M468 12h1M468 56h1M468 16h1M468 45h1M468 10h1M468 62h1M468 23h1M468 31h1M468 18h1M468 40h1M468 11h1M468 59h1M468 19h1M468 37h1M468 55h1M468 15h1M468 48h1M468 60h1M468 20h1M468 36h1M468 13h1M468 53h1M468 54h1M468 14h1M468 52h1M468 47h1M468 61h1M468 21h1M468 34h1M468 33h1M468 22h1M468 39h1M468 58h1M468 41h1M469 19h1M469 39h1M469 11h1M469 58h1M469 18h1M469 40h1M469 59h1M469 20h1M469 37h1M469 13h1M469 54h1M469 14h1M469 51h1M469 12h1M469 57h1M469 17h1M469 44h1M469 10h1M469 62h1M469 23h1M469 31h1M469 38h1M469 56h1M469 15h1M469 47h1M469 61h1M469 22h1M469 32h1M469 42h1M469 43h1M470 23h1M470 30h1M470 19h1M470 38h1M470 12h1M470 57h1M470 17h1M470 43h1M470 10h1M470 62h1M470 31h1M470 18h1M470 40h1M470 11h1M470 60h1M470 20h1M470 36h1M470 13h1M470 53h1M470 52h1M470 54h1M470 14h1M470 51h1M470 44h1M470 39h1M470 58h1M470 41h1M470 61h1M470 21h1M470 34h1M470 15h1M470 48h1M470 49h1M470 59h1M470 56h1M470 16h1M470 46h1M470 22h1M470 35h1M470 50h1M471 22h1M471 31h1M471 18h1M471 41h1M471 10h1M471 61h1M471 21h1M471 33h1M471 15h1M471 47h1M471 32h1M471 16h1M471 45h1M471 62h1M471 23h1M471 30h1M471 19h1M471 38h1M471 12h1M471 56h1M471 39h1M471 11h1M471 58h1M471 17h1M471 42h1M471 46h1M471 34h1M471 48h1M471 60h1M471 35h1M471 14h1M471 51h1M471 57h1M471 43h1M472 23h1M472 30h1M472 19h1M472 38h1M472 12h1M472 56h1M472 15h1M472 47h1M472 10h1M472 61h1M472 22h1M472 31h1M472 17h1M472 42h1M472 32h1M472 16h1M472 44h1M472 62h1M472 37h1M472 43h1M472 57h1M472 46h1M472 18h1M472 41h1M472 60h1M472 21h1M472 35h1M472 14h1M472 50h1M472 11h1M472 58h1M473 21h1M473 35h1M473 14h1M473 50h1M473 11h1M473 58h1M473 18h1M473 41h1M473 10h1M473 61h1M473 33h1M473 15h1M473 47h1M473 22h1M473 31h1M473 17h1M473 42h1M473 32h1M473 44h1M473 62h1M473 23h1M473 30h1M473 19h1M473 37h1M473 12h1M473 55h1M473 48h1M473 60h1M473 20h1M473 51h1M473 57h1M473 16h1M473 49h1M473 59h1M473 38h1M473 56h1M473 45h1M474 11h1M474 60h1M474 20h1M474 36h1M474 13h1M474 53h1M474 54h1M474 14h1M474 51h1M474 12h1M474 57h1M474 16h1M474 44h1M474 10h1M474 62h1M474 23h1M474 29h1M474 52h1M474 55h1M474 15h1M474 49h1M474 56h1M474 46h1M474 30h1M474 19h1M474 38h1M475 20h1M475 35h1M475 13h1M475 52h1M475 12h1M475 56h1M475 15h1M475 47h1M475 10h1M475 61h1M475 22h1M475 32h1M475 17h1M475 42h1M475 62h1M475 23h1M475 30h1M475 18h1M475 40h1M475 11h1M475 59h1M475 19h1M475 38h1M475 16h1M475 45h1M475 29h1M475 36h1M475 53h1M475 55h1M475 14h1M475 50h1M475 57h1M475 43h1M475 37h1M475 48h1M475 21h1M475 33h1M475 44h1M476 10h1M476 62h1M476 23h1M476 29h1M476 20h1M476 36h1M476 13h1M476 53h1M476 54h1M476 14h1M476 51h1M476 11h1M476 57h1M476 17h1M476 43h1M476 12h1M476 56h1M476 16h1M476 46h1M476 30h1M476 19h1M476 37h1M476 55h1M476 15h1M476 48h1M476 61h1M476 21h1M476 33h1M476 47h1M476 31h1M476 18h1M476 40h1M476 60h1M476 44h1M477 14h1M477 51h1M477 12h1M477 56h1M477 16h1M477 45h1M477 10h1M477 62h1M477 24h1M477 29h1M477 20h1M477 35h1M477 11h1M477 57h1M477 17h1M477 43h1M477 23h1M477 37h1M477 55h1M477 49h1M477 59h1M477 19h1M477 15h1M477 47h1M477 22h1M477 31h1M477 18h1M477 41h1M477 61h1M477 32h1M477 44h1M477 28h1M477 21h1M477 34h1M477 60h1M477 36h1M477 13h1M477 53h1M477 54h1M477 52h1M477 50h1M477 38h1M478 17h1M478 44h1M478 10h1M478 62h1M478 24h1M478 28h1M478 21h1M478 34h1M478 15h1M478 48h1M478 60h1M478 14h1M478 49h1M478 11h1M478 59h1M478 19h1M478 37h1M478 12h1M478 56h1M478 46h1M478 23h1M478 30h1M478 47h1M478 38h1M478 57h1M478 20h1M478 36h1M478 54h1M478 51h1M478 58h1M478 42h1M478 61h1M478 22h1M478 31h1M478 18h1M478 40h1M479 13h1M479 54h1M479 52h1M479 12h1M479 56h1M479 15h1M479 47h1M479 10h1M479 62h1M479 22h1M479 31h1M479 17h1M479 41h1M479 61h1M479 32h1M479 43h1M479 23h1M479 29h1M479 20h1M479 36h1M479 14h1M479 51h1M479 57h1M479 16h1M479 45h1M479 63h1M479 24h1M479 28h1M479 21h1M479 33h1M479 46h1M479 35h1M479 50h1M479 11h1M479 58h1M479 18h1M479 40h1M479 34h1M479 49h1M479 60h1M479 53h1M479 55h1M479 48h1M479 44h1M480 10h1M480 63h1M480 24h1M480 28h1M480 22h1M480 32h1M480 16h1M480 44h1M480 45h1M480 17h1M480 33h1M480 21h1M480 15h1M480 46h1M480 62h1M480 23h1M480 29h1M480 20h1M480 36h1M480 13h1M480 53h1M480 54h1M480 14h1M480 51h1M480 11h1M480 57h1M480 43h1M480 34h1M480 50h1M480 59h1M480 19h1M480 38h1M481 10h1M481 62h1M481 23h1M481 29h1M481 20h1M481 35h1M481 13h1M481 52h1M481 12h1M481 56h1M481 15h1M481 48h1M481 22h1M481 31h1M481 18h1M481 41h1M481 61h1M481 32h1M481 16h1M481 45h1M481 63h1M481 24h1M481 27h1M481 17h1M481 42h1M481 30h1M481 19h1M481 39h1M481 11h1M481 59h1M481 40h1M481 60h1M481 36h1M481 55h1M481 14h1M481 50h1M481 58h1M481 33h1M481 46h1M481 28h1M482 16h1M482 46h1M482 10h1M482 63h1M482 24h1M482 28h1M482 21h1M482 34h1M482 15h1M482 48h1M482 61h1M482 22h1M482 32h1M482 45h1M482 27h1M482 31h1M482 18h1M482 40h1M482 33h1M482 17h1M482 42h1M482 62h1M482 29h1M482 20h1M482 35h1M482 13h1M482 51h1M482 12h1M482 57h1M482 41h1M482 43h1M482 14h1M482 49h1M482 60h1M483 11h1M483 57h1M483 16h1M483 44h1M483 9h1M483 63h1M483 24h1M483 27h1M483 23h1M483 30h1M483 19h1M483 39h1M483 59h1M483 18h1M483 40h1M483 10h1M483 60h1M483 20h1M483 36h1M483 13h1M483 53h1M483 54h1M483 52h1M483 12h1M483 56h1M483 46h1M483 28h1M483 21h1M483 33h1M483 15h1M483 47h1M483 62h1M483 29h1M483 34h1M483 14h1M483 50h1M483 35h1M483 55h1M483 48h1M483 61h1M483 22h1M483 32h1M483 45h1M483 38h1M483 58h1M483 17h1M483 42h1M484 10h1M484 61h1M484 21h1M484 33h1M484 15h1M484 46h1M484 63h1M484 24h1M484 28h1M484 22h1M484 32h1M484 16h1M484 45h1M484 9h1M484 25h1M484 27h1M484 23h1M484 29h1M484 20h1M484 36h1M484 12h1M484 54h1M484 14h1M484 51h1M484 11h1M484 58h1M484 18h1M484 41h1M484 31h1M484 17h1M484 43h1M484 19h1M484 37h1M484 55h1M484 48h1M484 50h1M484 60h1M485 10h1M485 62h1M485 23h1M485 30h1M485 19h1M485 37h1M485 12h1M485 57h1M485 16h1M485 45h1M485 9h1M485 63h1M485 25h1M485 26h1M485 24h1M485 28h1M485 21h1M485 34h1M485 14h1M485 50h1M485 11h1M485 59h1M485 38h1M485 58h1M485 17h1M485 43h1M485 33h1M485 46h1M485 27h1M485 18h1M485 40h1M485 61h1M485 15h1M485 49h1M485 47h1M485 42h1M485 29h1M485 20h1M485 35h1M485 13h1M485 52h1M485 56h1M486 17h1M486 42h1M486 10h1M486 63h1M486 24h1M486 28h1M486 21h1M486 33h1M486 15h1M486 47h1M486 62h1M486 23h1M486 29h1M486 20h1M486 35h1M486 13h1M486 52h1M486 12h1M486 56h1M486 46h1M486 9h1M486 27h1M486 22h1M486 31h1M486 18h1M486 41h1M486 30h1M486 40h1M486 60h1M486 14h1M486 51h1M486 11h1M486 58h1M486 43h1M486 53h1M486 55h1M486 61h1M486 32h1M486 16h1M486 25h1M487 23h1M487 29h1M487 20h1M487 36h1M487 12h1M487 55h1M487 14h1M487 51h1M487 11h1M487 58h1M487 18h1M487 40h1M487 10h1M487 61h1M487 22h1M487 32h1M487 16h1M487 46h1M487 9h1M487 63h1M487 25h1M487 26h1M487 24h1M487 28h1M487 21h1M487 34h1M487 59h1M487 33h1M487 15h1M487 48h1M487 62h1M487 30h1M487 47h1M487 50h1M487 60h1M487 37h1M487 49h1M487 19h1M487 57h1M487 45h1M488 15h1M488 47h1M488 9h1M488 63h1M488 24h1M488 27h1M488 22h1M488 31h1M488 18h1M488 41h1M488 10h1M488 62h1M488 23h1M488 30h1M488 39h1M488 60h1M488 20h1M488 36h1M488 13h1M488 53h1M488 54h1M488 52h1M488 12h1M488 56h1M488 28h1M488 32h1M488 16h1M488 44h1M488 64h1M488 25h1M488 26h1M488 21h1M488 33h1M489 24h1M489 27h1M489 23h1M489 30h1M489 19h1M489 38h1M489 11h1M489 58h1M489 17h1M489 43h1M489 9h1M489 63h1M489 25h1M489 29h1M489 20h1M489 35h1M489 13h1M489 53h1M489 12h1M489 55h1M489 14h1M489 50h1M489 10h1M489 60h1M489 54h1M489 51h1M489 36h1M489 41h1M489 62h1M489 49h1M489 61h1M489 21h1M489 34h1M489 37h1M489 57h1M490 24h1M490 27h1M490 22h1M490 31h1M490 17h1M490 43h1M490 9h1M490 63h1M490 25h1M490 26h1M490 28h1M490 32h1M490 16h1M490 44h1M490 64h1M490 42h1M490 10h1M490 21h1M490 33h1M490 15h1M490 48h1M490 62h1M490 23h1M490 30h1M490 19h1M490 39h1M490 11h1M490 59h1M490 18h1M490 60h1M490 37h1M490 57h1M490 45h1M490 47h1M490 29h1M490 12h1M491 25h1M491 26h1M491 23h1M491 29h1M491 20h1M491 35h1M491 13h1M491 52h1M491 12h1M491 56h1M491 15h1M491 47h1M491 9h1M491 63h1M491 24h1M491 27h1M491 30h1M491 18h1M491 40h1M491 10h1M491 61h1M491 21h1M491 34h1M491 14h1M491 51h1M491 11h1M491 59h1M491 49h1M491 22h1M491 32h1M491 16h1M491 45h1M491 64h1M491 31h1M491 17h1M491 42h1M491 28h1M491 44h1M491 43h1M492 21h1M492 33h1M492 15h1M492 48h1M492 10h1M492 62h1M492 23h1M492 29h1M492 20h1M492 36h1M492 12h1M492 55h1M492 14h1M492 51h1M492 11h1M492 58h1M492 17h1M492 41h1M492 54h1M492 13h1M492 52h1M492 57h1M492 16h1M492 45h1M492 9h1M492 64h1M492 26h1M492 25h1M492 24h1M492 28h1M492 34h1M492 49h1M492 61h1M492 22h1M492 32h1M492 50h1M492 42h1M492 63h1M493 23h1M493 29h1M493 20h1M493 36h1M493 13h1M493 54h1M493 53h1M493 12h1M493 55h1M493 14h1M493 50h1M493 10h1M493 60h1M493 35h1M493 51h1M493 11h1M493 59h1M493 18h1M493 40h1M493 61h1M493 21h1M493 33h1M493 15h1M493 47h1M493 9h1M493 63h1M493 24h1M493 28h1M493 22h1M493 32h1M493 16h1M493 44h1M493 64h1M493 26h1M493 27h1M493 30h1M493 39h1M493 19h1M493 37h1M493 57h1M493 45h1M493 38h1M493 56h1M493 48h1M493 62h1M494 24h1M494 27h1M494 22h1M494 31h1M494 17h1M494 42h1M494 9h1M494 63h1M494 25h1M494 26h1M494 28h1M494 32h1M494 16h1M494 45h1M494 64h1M494 43h1M494 44h1M494 23h1M494 30h1M494 18h1M494 39h1M494 10h1M494 60h1M494 20h1M494 35h1M494 13h1M494 52h1M494 12h1M494 56h1M494 15h1M494 47h1M494 21h1M495 17h1M495 42h1M495 9h1M495 64h1M495 25h1M495 26h1M495 27h1M495 23h1M495 29h1M495 20h1M495 36h1M495 12h1M495 55h1M495 14h1M495 49h1M495 10h1M495 61h1M495 21h1M495 33h1M495 62h1M495 22h1M495 30h1M495 18h1M495 40h1M495 31h1M495 43h1M495 24h1M495 28h1M495 34h1M495 51h1M495 11h1M495 58h1M495 41h1M495 63h1M495 32h1M495 16h1M495 46h1M496 41h1M496 9h1M496 63h1M496 24h1M496 28h1M496 22h1M496 32h1M496 16h1M496 45h1M496 64h1M496 26h1M496 21h1M496 33h1M496 15h1M496 48h1M496 34h1M496 14h1M496 50h1M496 11h1M496 60h1M496 19h1M496 38h1M496 58h1M496 17h1M496 43h1M496 25h1M496 27h1M496 23h1M496 30h1M496 18h1M496 10h1M496 29h1M496 20h1M496 35h1M496 13h1M496 53h1M496 12h1M496 55h1M496 51h1M496 59h1M496 39h1M496 61h1M497 26h1M497 25h1M497 23h1M497 29h1M497 20h1M497 36h1M497 12h1M497 54h1M497 13h1M497 52h1M497 57h1M497 16h1M497 46h1M497 9h1M497 64h1M497 24h1M497 28h1M497 22h1M497 32h1M497 45h1M497 35h1M497 53h1M497 55h1M497 11h1M497 58h1M497 17h1M497 43h1M497 56h1M497 15h1M497 47h1M498 19h1M498 37h1M498 11h1M498 57h1M498 16h1M498 45h1M498 9h1M498 65h1M498 27h1M498 23h1M498 29h1M498 44h1M499 10h1M499 61h1M499 21h1M499 33h1M499 14h1M499 49h1M499 62h1M499 22h1M499 31h1M499 17h1M499 43h1M499 9h1M499 64h1M499 26h1M499 24h1M499 27h1M499 23h1M499 29h1M499 20h1M499 35h1M499 13h1M499 54h1M499 12h1M499 53h1M499 55h1M499 32h1M499 16h1M499 45h1M499 65h1M499 30h1M499 19h1M499 39h1M499 60h1M499 37h1M499 57h1M499 15h1M499 46h1M500 17h1M500 43h1M500 9h1M500 64h1M500 26h1M500 24h1M500 27h1M500 22h1M500 32h1M500 16h1M500 44h1M500 65h1M500 30h1M500 18h1M500 40h1M500 10h1M500 62h1M500 23h1M500 19h1M500 38h1M500 11h1M500 60h1M500 59h1M500 41h1M500 63h1M500 29h1M500 20h1M500 36h1M500 12h1M500 55h1M500 13h1M500 52h1M500 58h1M500 28h1M500 21h1M500 33h1M500 15h1M500 48h1M500 31h1M501 19h1M501 37h1M501 12h1M501 57h1M501 15h1M501 47h1M501 9h1M501 64h1M501 26h1M501 24h1M501 27h1M501 22h1M501 31h1M501 17h1M501 43h1M501 28h1M501 21h1M501 34h1M501 14h1M501 50h1M501 10h1M501 61h1M501 33h1M501 48h1M501 63h1M501 23h1M501 29h1M501 11h1M501 58h1M501 65h1M501 16h1M501 45h1M501 42h1M501 25h1M502 21h1M502 32h1M502 15h1M502 46h1M502 9h1M502 65h1M502 26h1M502 23h1M502 29h1M502 20h1M502 36h1M502 12h1M502 55h1M502 14h1M502 49h1M502 10h1M502 62h1M502 22h1M502 16h1M502 45h1M502 27h1M502 31h1M502 17h1M502 43h1M502 30h1M502 18h1M502 39h1M502 60h1M502 54h1M502 13h1M502 52h1M502 57h1M502 47h1M502 64h1M502 24h1M502 28h1M502 33h1M502 48h1M502 63h1M502 25h1M502 34h1M502 50h1M502 61h1M502 51h1M503 22h1M503 32h1M503 16h1M503 45h1M503 9h1M503 65h1M503 27h1M504 28h1M504 21h1M504 33h1M504 14h1M504 49h1M504 9h1M504 63h1M504 24h1M504 34h1M504 50h1M504 10h1M504 61h1M504 62h1M504 23h1M504 29h1M504 19h1M504 38h1M504 11h1M504 59h1M504 18h1M504 39h1M504 20h1M504 13h1M504 51h1M504 40h1M504 22h1M504 31h1M504 17h1M504 43h1M504 65h1M504 27h1M504 42h1M504 64h1M504 26h1M504 32h1M504 16h1M504 44h1M504 15h1M504 46h1M504 30h1M504 41h1M505 31h1M505 17h1M505 42h1M505 9h1M505 64h1M505 26h1M505 24h1M505 27h1M505 23h1M505 29h1M505 19h1M505 37h1M505 11h1M505 58h1M505 22h1M505 16h1M505 44h1M505 65h1M505 28h1M505 21h1M505 33h1M505 15h1M505 47h1M505 32h1M505 45h1M505 20h1M505 35h1M505 13h1M505 54h1M505 12h1M505 53h1M505 55h1M505 51h1M505 59h1M505 18h1M505 39h1M506 56h1M506 15h1M506 47h1M506 9h1M506 64h1M506 26h1M506 24h1M506 27h1M506 22h1M506 32h1M506 16h1M506 44h1M506 65h1M506 28h1M506 21h1M506 33h1M506 14h1M506 49h1M506 10h1M506 63h1M506 23h1M506 29h1M506 19h1M506 37h1M506 11h1M506 57h1M506 62h1M506 38h1M506 59h1M506 60h1M506 20h1M506 36h1M506 12h1M506 31h1M506 17h1M506 41h1M506 25h1M506 45h1M507 39h1M507 10h1M507 61h1M507 20h1M507 34h1M507 13h1M507 51h1M507 11h1M507 59h1M507 18h1M507 62h1M507 22h1M507 32h1M507 16h1M507 46h1M507 9h1M507 65h1M507 28h1M507 21h1M507 33h1M507 14h1M507 49h1M507 63h1M507 24h1M507 27h1M507 31h1M507 17h1M507 41h1M507 64h1M507 26h1M507 23h1M507 29h1M507 19h1M507 37h1M507 58h1M507 42h1M507 30h1M507 50h1M507 15h1M507 44h1M508 19h1M508 38h1M508 11h1M508 59h1M508 18h1M508 39h1M508 10h1M508 62h1M508 22h1M508 31h1M508 16h1M508 44h1M508 9h1M508 66h1M508 28h1M508 20h1M508 34h1M508 13h1M508 52h1M508 58h1M508 17h1M508 43h1M508 65h1M508 27h1M508 21h1M508 32h1M508 15h1M508 46h1M508 33h1M508 48h1M508 64h1M508 25h1M508 26h1M508 24h1M508 14h1M508 49h1M508 63h1M508 23h1M508 29h1M508 37h1M508 42h1M508 30h1M508 40h1M509 15h1M509 46h1M509 9h1M509 65h1M509 28h1M509 21h1M509 34h1M509 14h1M509 50h1M509 10h1M509 61h1M509 33h1M509 49h1M509 63h1M509 23h1M509 29h1M509 19h1M509 37h1M509 11h1M509 59h1M509 18h1M509 40h1M509 24h1M509 26h1M509 58h1M509 17h1M509 43h1M509 27h1M509 22h1M509 32h1M509 16h1M509 45h1M509 66h1M509 20h1M509 13h1M509 52h1M509 44h1M509 35h1M509 53h1M509 12h1M509 56h1M509 47h1M509 36h1M509 48h1M509 64h1M509 25h1M510 26h1M510 23h1M510 28h1M510 21h1M510 34h1M510 13h1M510 51h1M510 11h1M510 60h1M510 19h1M510 38h1M510 10h1M510 61h1M510 20h1M510 35h1M510 12h1M510 54h1M510 53h1M510 55h1M510 37h1M510 58h1M510 17h1M510 42h1M510 9h1M510 65h1M510 27h1M510 22h1M510 31h1M510 16h1M510 44h1M510 66h1M510 29h1M510 52h1M510 59h1M510 18h1M510 40h1M510 63h1M510 24h1M511 65h1M511 27h1M511 21h1M511 32h1M511 15h1M511 47h1M511 9h1M511 28h1M511 33h1M511 48h1M511 64h1M511 26h1M511 24h1M511 14h1M511 50h1M511 10h1M511 62h1M511 46h1M511 66h1M511 20h1M511 35h1M511 13h1M511 54h1M511 12h1M511 55h1M511 52h1M511 11h1M511 58h1M511 16h1M511 44h1M511 17h1M511 42h1M511 23h1M511 30h1M511 18h1M511 39h1M511 22h1M511 31h1M511 43h1M512 11h1M512 58h1M512 16h1M512 44h1M512 8h1M512 66h1M512 29h1M512 19h1M512 37h1M513 27h1M513 22h1M513 31h1M513 16h1M513 44h1M513 8h1M513 66h1M513 29h1M513 19h1M513 37h1M513 11h1M513 58h1M513 17h1M513 43h1M513 9h1M513 28h1M513 20h1M513 34h1M513 13h1M513 52h1M513 59h1M513 42h1M513 65h1M513 30h1M513 41h1M513 64h1M513 26h1M513 23h1M513 21h1M513 51h1M513 10h1M513 60h1M513 36h1M513 57h1M513 15h1M513 47h1M513 32h1M513 14h1M513 61h1M513 35h1M513 53h1M513 12h1M513 55h1M514 31h1M514 16h1M514 44h1M514 8h1M514 66h1M514 29h1M514 19h1M514 38h1M514 11h1M514 60h1M514 18h1M514 39h1M514 10h1M514 61h1M514 21h1M514 33h1M514 14h1M514 49h1M514 9h1M514 64h1M514 25h1M514 26h1M514 24h1M514 27h1M514 22h1M514 37h1M514 59h1M514 63h1M514 23h1M514 58h1M514 17h1M514 43h1M514 36h1M514 12h1M514 57h1M514 15h1M514 47h1M514 65h1M514 30h1M514 42h1M515 51h1M515 10h1M515 61h1M515 20h1M515 35h1M515 12h1M515 54h1M515 55h1M515 13h1M515 53h1M515 11h1M515 57h1M515 15h1M515 46h1M515 8h1M515 66h1M515 29h1M515 19h1M515 37h1M515 58h1M515 17h1M515 42h1M515 9h1M515 28h1M515 56h1M515 14h1M515 48h1M515 64h1M515 26h1M515 24h1M515 27h1M515 22h1M515 31h1M515 43h1M515 52h1M515 59h1M515 18h1M515 39h1M515 62h1M515 16h1M515 45h1M516 13h1M516 52h1M516 11h1M516 59h1M516 18h1M516 39h1M516 10h1M516 62h1M516 22h1M516 30h1M516 40h1M516 9h1M516 64h1M516 25h1M516 26h1M516 24h1M516 27h1M516 21h1M516 32h1M516 15h1M516 47h1M516 66h1M516 28h1M516 20h1M516 34h1M516 58h1M516 16h1M516 44h1M516 8h1M516 31h1M516 17h1M516 43h1M516 29h1M516 19h1M516 36h1M516 57h1M516 45h1M516 61h1M516 33h1M516 14h1M516 49h1M516 23h1M516 63h1M517 19h1M517 36h1M517 11h1M517 57h1M517 15h1M517 47h1M517 9h1M517 65h1M517 28h1M517 21h1M517 33h1M517 14h1M517 49h1M517 64h1M517 25h1M517 26h1M517 24h1M517 27h1M517 32h1M517 48h1M517 22h1M517 16h1M517 45h1M517 8h1M517 66h1M517 30h1M517 18h1M517 39h1M517 10h1M517 62h1M517 17h1M517 41h1M517 31h1M517 43h1M517 29h1M517 38h1M517 61h1M517 63h1M517 50h1M518 65h1M518 26h1M518 23h1M518 28h1M518 20h1M518 36h1M518 12h1M518 56h1M518 14h1M518 50h1M518 10h1M518 63h1M518 29h1M518 19h1M518 38h1M518 61h1M518 34h1M518 13h1M518 52h1M518 11h1M518 58h1M518 16h1M518 44h1M518 8h1M518 67h1M518 30h1M518 18h1M518 40h1M518 9h1M518 24h1M518 27h1M518 22h1M518 31h1M518 17h1M518 43h1M518 66h1M518 35h1M518 55h1M518 51h1M518 60h1M518 57h1M518 15h1M518 47h1M518 64h1M519 22h1M519 30h1M519 18h1M519 40h1M519 9h1M519 64h1M519 25h1M519 26h1M519 24h1M519 27h1M519 31h1M519 16h1M519 43h1M519 8h1M519 66h1M519 39h1M519 63h1M519 23h1M519 29h1M519 20h1M519 36h1M519 11h1M519 57h1M519 15h1M519 47h1M519 65h1M519 28h1M519 21h1M519 33h1M519 14h1M519 50h1M519 10h1M519 62h1M519 17h1M519 42h1M519 48h1M519 34h1M519 13h1M519 53h1M519 46h1M519 19h1M519 38h1M519 60h1M519 37h1M520 45h1M520 8h1M520 67h1M520 30h1M520 17h1M520 41h1M520 9h1M520 65h1M520 27h1M520 21h1M520 32h1M520 15h1M520 48h1M520 47h1M520 66h1M520 29h1M520 19h1M520 37h1M520 11h1M520 59h1M520 18h1M520 40h1M520 64h1M520 24h1M520 26h1M520 23h1M520 28h1M520 20h1M520 34h1M520 13h1M520 52h1M520 10h1M520 60h1M520 38h1M520 36h1M520 57h1M520 46h1M520 63h1M520 22h1M521 28h1M521 20h1M521 35h1M521 12h1M521 55h1M521 13h1M521 51h1M521 10h1M521 61h1M521 34h1M521 53h1M521 11h1M521 58h1M521 16h1M521 45h1M521 8h1M521 67h1M521 30h1M521 17h1M521 42h1M521 66h1M521 29h1M521 19h1M521 36h1M521 57h1M521 15h1M521 46h1M521 18h1M521 39h1M521 9h1M521 63h1M521 23h1M521 52h1M521 60h1M521 38h1M521 47h1M521 62h1M521 21h1M521 32h1M521 48h1M522 37h1M522 11h1M522 59h1M522 18h1M522 40h1M522 9h1M522 64h1M522 25h1M522 26h1M522 24h1M522 27h1M522 21h1M522 32h1M522 15h1M522 46h1M522 8h1M522 66h1M522 30h1M522 39h1M522 63h1M522 23h1M522 28h1M522 20h1M522 34h1M522 13h1M522 53h1M522 57h1M522 67h1M522 22h1M522 31h1M522 16h1M522 45h1M522 17h1M522 43h1M522 29h1M522 19h1M522 36h1M522 41h1M522 65h1M522 33h1M523 30h1M523 17h1M523 42h1M523 8h1M523 66h1M523 29h1M523 19h1M523 37h1M523 10h1M523 60h1M523 18h1M523 39h1M523 9h1M523 63h1M523 23h1M523 28h1M523 20h1M523 34h1M523 13h1M523 52h1M523 11h1M523 59h1M523 41h1M523 53h1M523 58h1M523 16h1M523 45h1M523 67h1M523 31h1M523 43h1M523 65h1M523 21h1M523 33h1M523 14h1M523 50h1M523 62h1M523 22h1M523 40h1M523 26h1M523 24h1M523 27h1M523 48h1M524 33h1M524 14h1M524 49h1M524 9h1M524 64h1M524 25h1M524 26h1M524 24h1M524 27h1M524 21h1M524 23h1M524 29h1M524 18h1M524 39h1M524 63h1M524 19h1M524 38h1M524 10h1M524 61h1M524 20h1M524 35h1M524 12h1M524 55h1M524 13h1M524 53h1M524 11h1M524 57h1M524 15h1M524 47h1M524 8h1M524 66h1M524 28h1M524 52h1M524 59h1M524 40h1M524 32h1M524 48h1M524 65h1M525 8h1M525 67h1M525 31h1M525 16h1M525 45h1M526 8h1M526 67h1M526 31h1M526 16h1M526 45h1M527 8h1M527 68h1M527 32h1M527 15h1M527 46h1M527 67h1M527 31h1M527 16h1M527 44h1M528 8h1M528 67h1M528 31h1M528 16h1M528 44h1M528 68h1M528 32h1M528 15h1M528 46h1M528 43h1M528 45h1M528 47h1M528 17h1M529 11h1M529 59h1M529 17h1M529 41h1M529 9h1M529 66h1M529 28h1M529 21h1M529 33h1M529 14h1M529 50h1M529 63h1M529 23h1M529 29h1M529 19h1M529 37h1M529 10h1M529 61h1M529 36h1M529 57h1M529 15h1M529 47h1M529 8h1M529 67h1M529 31h1M529 16h1M529 43h1M529 45h1M529 68h1M529 32h1M529 46h1M529 44h1M530 31h1M530 15h1M530 45h1M530 8h1M530 68h1M530 32h1M530 47h1M530 67h1M530 30h1M530 17h1M530 42h1M530 16h1M530 44h1M530 18h1M530 40h1M530 9h1M530 65h1M530 27h1M530 22h1M530 41h1M530 66h1M530 29h1M530 19h1M530 38h1M530 10h1M530 61h1M530 20h1M530 34h1M530 12h1M530 54h1M530 56h1M530 14h1M530 50h1M530 64h1M530 25h1M530 24h1M531 15h1M531 46h1M531 8h1M531 68h1M531 31h1M531 45h1M531 32h1M531 48h1M531 67h1M531 29h1M531 18h1M531 39h1M531 9h1M531 64h1M531 25h1M531 24h1M531 26h1M531 23h1M531 28h1M531 19h1M531 36h1M531 11h1M531 58h1M531 16h1M531 43h1M531 47h1M531 30h1M531 17h1M531 41h1M531 66h1M531 38h1M531 10h1M531 61h1M531 21h1M531 33h1M531 13h1M531 51h1M531 62h1M531 44h1M531 14h1M532 15h1M532 47h1M532 8h1M532 68h1M532 31h1M532 46h1M532 32h1M532 14h1M532 48h1M532 66h1M532 29h1M532 19h1M532 37h1M532 10h1M532 60h1M532 18h1M532 38h1M532 9h1M532 63h1M532 22h1M532 30h1M532 40h1M532 65h1M532 26h1M532 23h1M532 28h1M532 20h1M532 36h1M532 11h1M532 57h1M532 67h1M532 27h1M532 16h1M532 44h1M532 45h1M532 49h1M532 35h1M532 12h1M533 67h1M533 30h1M533 17h1M533 42h1M533 8h1M533 31h1M533 16h1M533 45h1M533 68h1M533 33h1M533 14h1M533 50h1M533 9h1M533 64h1M533 25h1M533 26h1M533 24h1M533 27h1M533 22h1M533 65h1M533 23h1M533 21h1M533 63h1M533 28h1M533 20h1M533 35h1M533 12h1M533 55h1M533 13h1M533 52h1M533 11h1M533 59h1M533 41h1M533 66h1M533 19h1M533 36h1M533 29h1M533 18h1M533 39h1M534 20h1M534 34h1M534 12h1M534 54h1M534 55h1M534 56h1M534 14h1M534 50h1M534 9h1M534 63h1M534 23h1M534 28h1M534 33h1M534 13h1M534 52h1M534 10h1M534 61h1M534 19h1M534 36h1M534 11h1M534 57h1M534 15h1M534 47h1M534 8h1M534 68h1M534 32h1M534 46h1M534 67h1M534 31h1M534 16h1M534 43h1M534 49h1M534 65h1M534 26h1M534 58h1M534 45h1M535 16h1M535 45h1M535 8h1M535 68h1M535 33h1M535 13h1M535 51h1M535 10h1M535 62h1M535 21h1M535 31h1M535 15h1M535 46h1M535 14h1M535 50h1M535 9h1M535 64h1M535 25h1M535 24h1M535 26h1M535 23h1M535 28h1M535 20h1M535 34h1M535 12h1M535 55h1M535 54h1M535 53h1M535 11h1M535 59h1M535 17h1M535 41h1M535 66h1M535 29h1M535 19h1M535 37h1M535 61h1M535 36h1M535 58h1M535 22h1M535 44h1M535 27h1M536 15h1M536 46h1M536 8h1M536 68h1M536 33h1M536 14h1M536 51h1M536 9h1M536 63h1M536 23h1M536 28h1M536 20h1M536 34h1M536 13h1M536 53h1M536 11h1M536 58h1M536 16h1M536 45h1M536 10h1M536 62h1M536 21h1M536 50h1M536 64h1M536 25h1M536 24h1M536 26h1M536 27h1M536 49h1M536 65h1M536 22h1M536 30h1M536 18h1M536 40h1M536 66h1M536 35h1M536 12h1M536 55h1M536 54h1M536 52h1M536 61h1M536 19h1M536 36h1M536 59h1M537 8h1M537 68h1M537 32h1M537 14h1M537 48h1M537 67h1M537 29h1M537 18h1M537 40h1M537 9h1M537 65h1M537 27h1M537 22h1M537 30h1M537 16h1M537 43h1M537 33h1M537 50h1M537 26h1M537 23h1M537 19h1M537 37h1M537 10h1M537 60h1M537 61h1M537 20h1M537 34h1M537 13h1M537 53h1M537 11h1M537 59h1M537 38h1M537 63h1M537 12h1M537 54h1M537 56h1M537 52h1M537 58h1M538 19h1M538 37h1M538 10h1M538 61h1M538 20h1M538 34h1M538 12h1M538 53h1M538 11h1M538 58h1M538 15h1M538 46h1M538 8h1M538 68h1M538 33h1M538 13h1M538 51h1M538 9h1M538 63h1M538 23h1M538 27h1M538 21h1M538 29h1M538 55h1M538 54h1M538 35h1M538 56h1M538 14h1M538 50h1M538 65h1M538 26h1M538 18h1M538 39h1M538 64h1M538 24h1M539 40h1M539 8h1M539 66h1M539 27h1M539 20h1M539 33h1M539 13h1M539 52h1M539 10h1M539 61h1M539 35h1M539 12h1M539 55h1M539 53h1M539 11h1M539 58h1M539 16h1M539 45h1M539 7h1M539 69h1M539 34h1M539 54h1M539 57h1M539 14h1M539 49h1M539 67h1M539 29h1M539 18h1M539 39h1M539 9h1M539 64h1M539 25h1M539 24h1M539 26h1M539 23h1M539 19h1M539 37h1M539 56h1M539 51h1M539 63h1M539 21h1M539 62h1M539 22h1M539 31h1M539 44h1M539 28h1M540 52h1M540 10h1M540 61h1M540 19h1M540 36h1M540 11h1M540 59h1M540 17h1M540 41h1M540 8h1M540 67h1M540 31h1M540 16h1M540 44h1M540 7h1M540 69h1M540 34h1M540 12h1M540 54h1M540 55h1M540 57h1M540 15h1M540 47h1M540 68h1M540 32h1M540 33h1M540 14h1M540 50h1M540 9h1M540 65h1M540 27h1M540 22h1M540 45h1M540 56h1M540 13h1M540 62h1M540 21h1M540 49h1M540 66h1M540 29h1M540 37h1M540 20h1M540 53h1M540 60h1M540 18h1M540 39h1M540 26h1M540 23h1M541 68h1M541 32h1M541 14h1M541 49h1M541 8h1M541 66h1M541 29h1M541 19h1M541 37h1M541 10h1M541 61h1M541 20h1M541 34h1M541 13h1M541 53h1M541 11h1M541 59h1M541 16h1M541 43h1M541 7h1M541 69h1M541 12h1M541 54h1M541 57h1M541 28h1M541 35h1M541 48h1M541 67h1M541 30h1M541 60h1M541 18h1M541 40h1M541 55h1M541 58h1M541 44h1M541 45h1M542 13h1M542 53h1M542 11h1M542 59h1M542 17h1M542 41h1M542 8h1M542 68h1M542 31h1M542 15h1M542 45h1M542 7h1M542 69h1M542 34h1M542 12h1M542 55h1M542 54h1M542 57h1M542 14h1M542 49h1M542 66h1M542 29h1M542 19h1M542 37h1M542 10h1M542 61h1M542 20h1M542 56h1M542 51h1M542 9h1M542 64h1M542 24h1M542 27h1M542 21h1M542 46h1M542 60h1M542 18h1M542 39h1M542 65h1M542 22h1M542 16h1M542 35h1M542 52h1M542 62h1M542 33h1M542 36h1M542 58h1M543 56h1M543 14h1M543 50h1M543 9h1M543 65h1M543 27h1M543 21h1M543 31h1M543 15h1M543 46h1M543 7h1M543 69h1M543 34h1M543 12h1M543 55h1M543 54h1M543 11h1M543 57h1M543 47h1M543 8h1M543 33h1M543 13h1M543 52h1M543 10h1M543 61h1M543 19h1M543 36h1M543 59h1M543 16h1M543 43h1M543 25h1M543 24h1M543 26h1M543 22h1M543 30h1M543 58h1M543 64h1M543 29h1M543 18h1M544 23h1M544 27h1M544 21h1M544 33h1M544 13h1M544 51h1M544 9h1M544 62h1M544 22h1M544 30h1M544 16h1M544 43h1M544 7h1M544 69h1M544 35h1M544 12h1M544 55h1M544 53h1M544 11h1M544 59h1M544 17h1M544 42h1M544 8h1M544 68h1M544 31h1M544 44h1M544 57h1M544 14h1M544 49h1M544 67h1M544 41h1M544 45h1M544 48h1M544 32h1M544 15h1M544 47h1M544 52h1M545 13h1M545 51h1M545 9h1M545 63h1M545 22h1M545 30h1M545 17h1M545 42h1M545 8h1M545 68h1M545 33h1M545 14h1M545 50h1M545 65h1M545 26h1M545 23h1M545 29h1M545 18h1M545 38h1M545 40h1M545 67h1M545 39h1M545 66h1M545 27h1M545 21h1M545 32h1M545 49h1M545 28h1M545 19h1M545 37h1M545 10h1M545 61h1M545 20h1M545 34h1M545 12h1M545 55h1M545 54h1M545 56h1M545 64h1M545 24h1M545 41h1M545 31h1M545 15h1M545 47h1M545 7h1M545 69h1M545 11h1M545 57h1M546 11h1M546 58h1M546 16h1M546 44h1M546 7h1M546 70h1M546 36h1M546 45h1M547 9h1M547 65h1M547 27h1M547 22h1M547 31h1M547 16h1M547 45h1M547 7h1M547 70h1M547 36h1M547 11h1M547 59h1M547 17h1M547 42h1M547 69h1M547 34h1M547 12h1M547 55h1M547 54h1M547 56h1M547 13h1M547 52h1M547 62h1M547 44h1M547 57h1M547 15h1M547 47h1M547 14h1M547 48h1M547 8h1M547 68h1M547 46h1M547 35h1M547 49h1M547 67h1M547 29h1M547 18h1M547 39h1M547 26h1M547 23h1M548 55h1M548 12h1M548 53h1M548 11h1M548 58h1M548 16h1M548 44h1M548 7h1M548 70h1M548 36h1M548 10h1M548 60h1M548 18h1M548 40h1M548 8h1M548 67h1M548 29h1M548 39h1M548 66h1M548 28h1M548 20h1M548 35h1M548 57h1M548 14h1M548 49h1M548 30h1M548 43h1M548 15h1M548 46h1M548 69h1M548 50h1M548 48h1M548 33h1M548 13h1M548 52h1M548 62h1M548 21h1M548 31h1M548 47h1M548 56h1M548 61h1M548 34h1M548 54h1M549 53h1M549 11h1M549 58h1M549 16h1M549 44h1M549 7h1M549 70h1M549 36h1M549 10h1M549 60h1M549 18h1M549 38h1M549 9h1M549 64h1M549 23h1M549 27h1M549 21h1M549 33h1M549 13h1M549 50h1M549 65h1M549 26h1M549 28h1M549 19h1M549 59h1M549 17h1M549 42h1M549 69h1M549 34h1M549 12h1M549 55h1M549 54h1M549 56h1M549 14h1M549 31h1M549 15h1M549 45h1M549 39h1M549 8h1M549 66h1M549 35h1M549 24h1M549 37h1M550 37h1M550 10h1M550 61h1M550 19h1M550 36h1M550 59h1M550 17h1M550 41h1M550 8h1M550 68h1M550 32h1M550 14h1M550 50h1M550 65h1M550 27h1M550 21h1M550 48h1M550 31h1M550 15h1M550 47h1M550 7h1M550 69h1M550 35h1M550 11h1M550 57h1M550 49h1M550 46h1M550 70h1M550 60h1M550 18h1M550 39h1M550 9h1M550 26h1M550 22h1M550 30h1M550 56h1M550 13h1M550 51h1M550 64h1M550 25h1M550 24h1M550 23h1M550 28h1M550 20h1M551 7h1M551 70h1M551 37h1M551 10h1M551 62h1M551 20h1M551 34h1M551 12h1M551 54h1M551 11h1M551 58h1M551 15h1M551 45h1M551 36h1M551 61h1M551 19h1M551 60h1M551 18h1M551 39h1M551 9h1M551 65h1M551 26h1M551 22h1M551 30h1M551 17h1M551 42h1M551 69h1M551 56h1M551 13h1M551 52h1M551 35h1M551 14h1M551 50h1M551 16h1M551 43h1M551 59h1M551 51h1M552 16h1M552 45h1M552 7h1M552 70h1M552 37h1M552 10h1M552 62h1M552 21h1M552 32h1M552 14h1M552 48h1M552 8h1M552 68h1M552 33h1M552 13h1M552 52h1M552 9h1M552 63h1M552 22h1M552 29h1M552 18h1M552 39h1M552 66h1M552 23h1M552 38h1M552 65h1M552 26h1M552 27h1M552 20h1M552 34h1M552 12h1M552 54h1M552 11h1M552 57h1M552 50h1M552 15h1M552 47h1M552 69h1M552 55h1M552 53h1M552 59h1M552 43h1M552 61h1M552 19h1M552 35h1M552 58h1M552 46h1M552 36h1M552 60h1M553 44h1M553 7h1M553 70h1M553 37h1M553 9h1M553 63h1M553 22h1M553 30h1M553 16h1M553 62h1M553 21h1M553 31h1M553 15h1M553 46h1M553 10h1M553 20h1M553 33h1M553 13h1M553 52h1M553 32h1M553 14h1M553 48h1M553 8h1M553 68h1M553 51h1M553 65h1M553 25h1M553 24h1M553 26h1M553 23h1M553 28h1M553 19h1M553 36h1M553 61h1M553 34h1M553 12h1M553 53h1M553 11h1M553 59h1M553 42h1M553 17h1M554 32h1M554 14h1M554 50h1M554 8h1M554 67h1M554 29h1M554 18h1M554 39h1M554 17h1M554 40h1M554 68h1M554 15h1M554 47h1M554 7h1M554 69h1M554 35h1M554 11h1M554 56h1M554 13h1M554 51h1M554 9h1M554 64h1M554 25h1M554 24h1M554 26h1M554 22h1M554 30h1M554 16h1M554 44h1M554 70h1M554 37h1M554 63h1M554 23h1M554 38h1M554 42h1M554 57h1M554 49h1M554 31h1M554 58h1M555 22h1M555 31h1M555 15h1M555 45h1M555 7h1M555 71h1M555 38h1M555 9h1M555 64h1M555 24h1M555 26h1M555 30h1M555 16h1M555 42h1M555 70h1M555 36h1M555 10h1M555 60h1M555 18h1M555 25h1M555 23h1M555 28h1M555 20h1M555 35h1M555 11h1M555 57h1M555 14h1M555 49h1M555 8h1M555 68h1M555 32h1M555 48h1M555 69h1M555 33h1M555 12h1M555 53h1M555 17h1M555 41h1M555 13h1M555 52h1M555 62h1M555 59h1M555 34h1M555 56h1M555 21h1M556 13h1M556 53h1M556 10h1M556 61h1M556 19h1M556 35h1M556 11h1M556 58h1M556 15h1M556 46h1M556 7h1M556 70h1M556 37h1M556 9h1M556 63h1M556 22h1M556 30h1M556 16h1M556 43h1M556 29h1M556 17h1M556 41h1M556 8h1M556 69h1M556 33h1M556 36h1M556 59h1M556 42h1M556 60h1M556 18h1M556 40h1M556 67h1M556 20h1M556 57h1M556 14h1M556 50h1M556 38h1M557 11h1M557 59h1M557 16h1M557 43h1M557 7h1M557 71h1M557 37h1M557 9h1M557 63h1M557 23h1M557 28h1M557 19h1M557 36h1M557 10h1M557 42h1M557 70h1M557 61h1M557 20h1M557 35h1M557 57h1M557 14h1M557 50h1M557 8h1M557 66h1M557 62h1M557 21h1M557 31h1M557 15h1M557 47h1M557 32h1M557 67h1M557 30h1M557 17h1M557 60h1M557 18h1M557 38h1M557 65h1M557 25h1M557 24h1M557 26h1M557 22h1M557 44h1M557 29h1M557 39h1M558 25h1M558 24h1M558 23h1M558 27h1M558 21h1M558 32h1M558 14h1M558 48h1M558 8h1M558 69h1M558 33h1M558 13h1M558 53h1M558 10h1M558 61h1M558 20h1M558 35h1M558 11h1M558 58h1M558 15h1M558 47h1M558 7h1M558 70h1M558 37h1M558 62h1M558 34h1M558 12h1M558 55h1M558 56h1M558 51h1M558 9h1M558 64h1M558 19h1M558 36h1M558 18h1M558 52h1M558 63h1M558 22h1M558 30h1M558 16h1M558 43h1M558 29h1M558 17h1M558 40h1M559 37h1M559 9h1M559 62h1M559 21h1M559 32h1M559 14h1M559 50h1M559 8h1M559 67h1M559 30h1M559 16h1M559 44h1M559 7h1M559 71h1M559 39h1M559 66h1M559 27h1M559 20h1M559 34h1M559 12h1M559 56h1M559 54h1M559 10h1M559 59h1M559 17h1M559 42h1M559 70h1M559 31h1M559 15h1M559 47h1M559 33h1M559 13h1M559 51h1M559 65h1M559 26h1M559 23h1M559 28h1M559 11h1M559 25h1M559 29h1M559 41h1M559 69h1M559 35h1M559 57h1M559 49h1M559 68h1M560 39h1M560 8h1M560 66h1M560 27h1M560 20h1M560 33h1M560 12h1M560 54h1M560 11h1M560 59h1M560 16h1M560 44h1M560 7h1M560 71h1M560 28h1M560 19h1M560 37h1M560 9h1M560 63h1M560 22h1M560 30h1M560 43h1M560 38h1M560 65h1M560 25h1M560 24h1M560 21h1M560 31h1M560 15h1M560 47h1M560 70h1M560 36h1M560 10h1M560 61h1M560 35h1M560 29h1M560 17h1M560 41h1M560 69h1M560 34h1M560 55h1M560 58h1M561 65h1M561 26h1M561 22h1M561 29h1M561 17h1M561 40h1M561 8h1M561 68h1M561 31h1M561 15h1M561 47h1M561 7h1M561 70h1M561 36h1M561 10h1M561 61h1M561 20h1M561 35h1M561 11h1M561 57h1M561 14h1M561 50h1M561 67h1M561 45h1M561 71h1M561 39h1M561 30h1M561 16h1M561 42h1M561 38h1M561 9h1M561 64h1M561 25h1M561 24h1M561 23h1M561 28h1M561 19h1M561 62h1M561 34h1M561 12h1M561 54h1M561 58h1M561 46h1M561 66h1M561 60h1M562 45h1M562 7h1M562 71h1M562 40h1M562 8h1M562 68h1M562 31h1M562 15h1M562 46h1M562 38h1M562 66h1M562 27h1M562 20h1M562 33h1M562 12h1M562 54h1M562 11h1M562 58h1M562 39h1M562 67h1M562 30h1M562 16h1M562 43h1M562 28h1M562 35h1M562 57h1M562 14h1M562 48h1M562 69h1M562 47h1M562 9h1M562 65h1M562 26h1M562 22h1M562 29h1M562 17h1M562 32h1M562 49h1M562 13h1M562 52h1M562 63h1M562 42h1M563 9h1M563 63h1M563 23h1M563 28h1M563 18h1M563 38h1M563 65h1M563 25h1M563 24h1M563 26h1M563 22h1M563 30h1M563 16h1M563 45h1M563 7h1M563 72h1M563 40h1M563 8h1M563 68h1M563 32h1M563 14h1M563 50h1M563 67h1M563 43h1M563 71h1M563 39h1M563 66h1M563 19h1M563 37h1M563 29h1M563 17h1M563 13h1M563 36h1M563 10h1M563 61h1M563 35h1M563 59h1M564 12h1M564 53h1M564 10h1M564 60h1M564 17h1M564 40h1M564 7h1M564 69h1M564 34h1M564 54h1M564 11h1M564 58h1M564 15h1M564 47h1M564 71h1M564 37h1M564 9h1M564 64h1M564 24h1M564 25h1M564 26h1M564 22h1M564 30h1M564 42h1M564 70h1M564 63h1M564 23h1M564 28h1M564 18h1M564 29h1M564 41h1M564 36h1M564 62h1M564 20h1M564 56h1M564 13h1M564 57h1M564 51h1M564 65h1M565 15h1M565 47h1M565 7h1M565 71h1M565 39h1M565 8h1M565 67h1M565 29h1M565 18h1M565 38h1M565 66h1M565 27h1M565 20h1M565 34h1M565 12h1M565 55h1M565 11h1M565 56h1M565 13h1M565 52h1M565 9h1M565 63h1M565 22h1M565 17h1M565 41h1M565 70h1M565 36h1M565 62h1M565 21h1M565 32h1M565 50h1M565 40h1M565 69h1M565 33h1M565 53h1M565 10h1M565 60h1M565 28h1M565 19h1M565 35h1M565 37h1M565 31h1M565 45h1M565 72h1M566 18h1M566 39h1M566 8h1M566 66h1M566 28h1M566 38h1M566 9h1M566 65h1M566 25h1M566 24h1M566 26h1M566 22h1M566 29h1M566 67h1M566 30h1M566 15h1M566 45h1M566 7h1M566 72h1M566 41h1M566 70h1M566 35h1M566 11h1M566 59h1M566 16h1M566 44h1M566 58h1M566 40h1M566 69h1M566 34h1M566 56h1M566 13h1M566 51h1M567 69h1M567 34h1M567 11h1M567 56h1M567 13h1M567 51h1M567 9h1M567 65h1M567 25h1M567 24h1M567 26h1M567 22h1M567 29h1M567 18h1M567 39h1M567 8h1M567 67h1M567 30h1M567 16h1M567 44h1M567 6h1M567 72h1M567 41h1M567 7h1M567 70h1M567 36h1M567 10h1M567 61h1M567 19h1M567 35h1M567 60h1M567 17h1M567 40h1M567 58h1M567 14h1M567 48h1M567 37h1M567 62h1M567 21h1M567 31h1M567 20h1M567 57h1M567 50h1M567 68h1M567 15h1M567 46h1M568 48h1M568 7h1M568 70h1M568 36h1M568 9h1M568 62h1M568 21h1M568 32h1M568 14h1M568 49h1M568 69h1M568 33h1M568 12h1M568 54h1M568 11h1M568 58h1M568 15h1M568 45h1M568 6h1M568 72h1M568 41h1M568 10h1M568 61h1M568 19h1M568 35h1M568 59h1M568 16h1M568 43h1M568 40h1M568 34h1M568 57h1M568 13h1M568 51h1M568 65h1M568 25h1M568 24h1M568 26h1M568 31h1M568 46h1M568 53h1M568 18h1M568 38h1M568 8h1M568 66h1M568 27h1M569 8h1M569 67h1M569 30h1M569 17h1M569 42h1M569 7h1M569 71h1M569 39h1M569 16h1M569 43h1M569 72h1M569 40h1M569 70h1M569 35h1M569 10h1M569 60h1M569 41h1M569 36h1M569 61h1M569 19h1M569 18h1M569 15h1M569 45h1M569 6h1M569 38h1M569 65h1M569 26h1M569 22h1M569 21h1M569 31h1M569 37h1M569 9h1M569 64h1M569 25h1M569 24h1M570 69h1M570 34h1M570 11h1M570 58h1M570 14h1M570 48h1M570 7h1M570 70h1M570 37h1M570 9h1M570 63h1M570 22h1M570 30h1M570 16h1M570 44h1M570 6h1M570 72h1M570 42h1M570 71h1M570 39h1M570 8h1M570 67h1M570 29h1M570 17h1M570 41h1M570 64h1M570 23h1M570 27h1M570 21h1M570 31h1M570 36h1M570 10h1M570 62h1M570 20h1M570 33h1M570 12h1M570 54h1M570 59h1M570 40h1M570 53h1M571 72h1M571 41h1M571 7h1M571 71h1M571 37h1M571 9h1M571 64h1M571 24h1M571 25h1M571 23h1M571 26h1M571 21h1M571 31h1M571 14h1M571 48h1M571 38h1M571 8h1M571 67h1M571 29h1M571 18h1M571 39h1M571 68h1M571 32h1M571 13h1M571 51h1M571 66h1M571 15h1M571 47h1M571 40h1M571 70h1M571 35h1M571 10h1M571 60h1M571 17h1M571 22h1M571 30h1M571 16h1M571 42h1M571 69h1M571 33h1M571 12h1M571 55h1M571 11h1M571 57h1M571 50h1M571 46h1M572 7h1M572 71h1M572 37h1M572 9h1M572 65h1M572 25h1M572 23h1M572 28h1M572 19h1M572 35h1M572 10h1M572 59h1M572 16h1M572 42h1M572 72h1M572 40h1M572 70h1M572 60h1M572 17h1M572 69h1M572 34h1M572 11h1M572 56h1M572 13h1M572 52h1M572 64h1M572 24h1M572 26h1M572 22h1M572 30h1M572 41h1M572 36h1M572 63h1M572 21h1M572 31h1M572 14h1M572 48h1M572 38h1M572 8h1M572 67h1M572 29h1M572 18h1M572 39h1M572 68h1M572 32h1M572 49h1M572 43h1M572 6h1M573 10h1M573 59h1M573 16h1M573 42h1M573 6h1M573 72h1M573 41h1M573 7h1M573 71h1M573 37h1M573 9h1M573 64h1M573 24h1M573 25h1M573 23h1M573 28h1M573 19h1M573 36h1M573 61h1M573 35h1M573 60h1M573 17h1M573 70h1M573 63h1M573 22h1M573 30h1M573 40h1M573 21h1M573 31h1M573 15h1M573 47h1M573 45h1M573 73h1M573 43h1M573 38h1M573 8h1M573 66h1M573 27h1M573 20h1M573 33h1M574 39h1M574 8h1M574 67h1M574 30h1M574 16h1M574 44h1M574 6h1M574 73h1M574 43h1M574 72h1M574 42h1M574 7h1M574 40h1M574 69h1M574 34h1M574 12h1M574 55h1M574 56h1M574 11h1M574 57h1M574 13h1M574 51h1M574 28h1M574 18h1M574 38h1M574 66h1M574 27h1M574 20h1M574 33h1M574 58h1M574 14h1M574 48h1M574 71h1M574 37h1M574 65h1M574 26h1M574 22h1M574 29h1M574 17h1M574 41h1M574 68h1M574 31h1M574 49h1M574 70h1M574 36h1M574 9h1M574 62h1M574 54h1M574 10h1M574 61h1M575 71h1M575 39h1M575 7h1M575 69h1M575 33h1M575 12h1M575 53h1M575 10h1M575 61h1M575 19h1M575 36h1M575 9h1M575 62h1M575 21h1M575 32h1M575 14h1M575 49h1M575 70h1M575 35h1M575 59h1M575 16h1M575 42h1M575 6h1M575 72h1M575 41h1M575 38h1M575 8h1M575 66h1M575 27h1M575 20h1M575 34h1M575 56h1M575 55h1M575 11h1M575 57h1M575 60h1M575 17h1M575 40h1M575 37h1M575 63h1M575 22h1M575 29h1M575 18h1M575 13h1M575 52h1M575 64h1M575 23h1M575 58h1M576 7h1M576 70h1M576 37h1M576 9h1M576 64h1M576 24h1M576 26h1M576 23h1M576 28h1M576 19h1M576 25h1M576 35h1M576 10h1M576 60h1M576 17h1M576 42h1M576 72h1M576 40h1M576 21h1M576 31h1M576 14h1M576 48h1M576 71h1M576 39h1M576 8h1M576 68h1M576 47h1M576 22h1M576 30h1M576 15h1M576 45h1M576 6h1M576 73h1M576 43h1M577 66h1M577 27h1M577 20h1M577 33h1M577 12h1M577 53h1M577 10h1M577 62h1M577 34h1M577 11h1M577 56h1M577 55h1M577 58h1M577 15h1M577 47h1M577 6h1M577 73h1M577 42h1M577 72h1M577 41h1M577 7h1M577 71h1M577 39h1M577 8h1M577 68h1M577 31h1M577 46h1M577 40h1M577 37h1M577 65h1M577 26h1M577 22h1M577 29h1M577 17h1M577 70h1M577 36h1M577 9h1M577 63h1M577 32h1M577 13h1M577 51h1M577 21h1M577 14h1M577 49h1M578 44h1M578 6h1M578 73h1M579 44h1M579 6h1M579 73h1M580 45h1M580 6h1M580 74h1M581 45h1M581 6h1M581 74h1M582 45h1M582 6h1M582 74h1M583 45h1M583 6h1M583 74h1M584 45h1M584 6h1M584 74h1M585 46h1M585 6h1M585 74h1M586 46h1M586 6h1M586 74h1M586 45h1M587 47h1M587 6h1M587 74h1M587 45h1M588 47h1M588 6h1M588 74h1M588 44h1M588 75h1M589 47h1M589 6h1M589 73h1M589 44h1M589 75h1M590 47h1M590 6h1M590 74h1M590 44h1M590 75h1M590 48h1M590 73h1M590 43h1M590 45h1M591 48h1M591 6h1M591 73h1M591 43h1M591 75h1M591 47h1M591 74h1M591 44h1M591 46h1M591 45h1M592 48h1M592 6h1M592 73h1M592 44h1M592 75h1M592 42h1M592 74h1M592 46h1M592 47h1M592 45h1M592 43h1M593 47h1M593 6h1M593 74h1M593 45h1M593 75h1M593 49h1M593 72h1M593 41h1M593 44h1M593 73h1M593 48h1M593 42h1M593 46h1M594 48h1M594 6h1M594 73h1M594 42h1M594 75h1M594 47h1M594 74h1M594 46h1M594 44h1M594 49h1M594 72h1M594 41h1M594 43h1M594 45h1M594 40h1M595 69h1M595 33h1M595 11h1M595 57h1M595 12h1M595 53h1M595 9h1M595 65h1M595 25h1M595 24h1M595 22h1M595 29h1M595 17h1M595 40h1M595 6h1M595 72h1M595 7h1M595 39h1M595 71h1M595 38h1M595 34h1M595 58h1M595 14h1M595 48h1M595 73h1M595 42h1M595 75h1M595 47h1M595 74h1M595 46h1M595 44h1M595 5h1M595 49h1M595 8h1M595 68h1M595 31h1M595 45h1M595 32h1M596 47h1M596 6h1M596 75h1M596 74h1M596 46h1M596 49h1M596 73h1M596 42h1M596 48h1M596 45h1M596 5h1M596 7h1M596 72h1M596 39h1M596 71h1M596 37h1M596 8h1M596 66h1M596 26h1M596 21h1M596 31h1M596 14h1M596 44h1M596 76h1M596 50h1M596 38h1M596 69h1M596 34h1M596 11h1M596 58h1M596 41h1M596 43h1M597 5h1M597 76h1M597 50h1M597 7h1M597 71h1M597 37h1M597 8h1M597 67h1M597 30h1M597 16h1M597 44h1M597 38h1M597 69h1M597 32h1M597 13h1M597 52h1M597 29h1M597 17h1M597 41h1M597 6h1M597 73h1M597 43h1M597 75h1M597 49h1M597 72h1M597 40h1M597 42h1M597 48h1M597 74h1M597 68h1M597 15h1M597 45h1M598 75h1M598 49h1M598 6h1M598 72h1M598 41h1M598 74h1M598 45h1M598 5h1M598 76h1M598 50h1M598 7h1M598 71h1M598 38h1M598 69h1M598 32h1M598 12h1M598 53h1M598 8h1M598 65h1M598 26h1M598 22h1M598 29h1M598 17h1M598 70h1M598 36h1M598 9h1M598 24h1M598 25h1M598 23h1M598 16h1M598 43h1M598 39h1M598 37h1M598 67h1M598 40h1M598 73h1M598 42h1M598 48h1M599 63h1M599 20h1M599 32h1M599 12h1M599 53h1M599 8h1M599 65h1M599 25h1M599 23h1M599 27h1M599 19h1M599 35h1M599 9h1M599 62h1M599 33h1M599 54h1M599 10h1M599 36h1M599 64h1M599 22h1M599 28h1M599 18h1M599 38h1M599 7h1M599 69h1M599 34h1M599 11h1M599 58h1M599 14h1M599 49h1M599 6h1M599 73h1M599 43h1M599 5h1M599 75h1M599 72h1M599 40h1M599 41h1M599 74h1M599 45h1M599 76h1M599 50h1M599 70h1M599 21h1M599 31h1M600 66h1M600 27h1M600 19h1M600 36h1M600 9h1M600 64h1M600 24h1M600 26h1M600 22h1M600 29h1M600 17h1M600 41h1M600 6h1M600 74h1M600 45h1M600 5h1M600 76h1M600 51h1M600 7h1M600 70h1M600 35h1M600 10h1M600 61h1M600 40h1M600 72h1M600 46h1M600 50h1M600 71h1M600 38h1M600 69h1M600 33h1M600 11h1M600 56h1M600 12h1M600 54h1M600 18h1M600 37h1M600 8h1M600 68h1M600 31h1M600 14h1M600 48h1M600 44h1M600 57h1M600 13h1M600 52h1M600 30h1M600 15h1M600 34h1M601 8h1M601 67h1M601 29h1M601 16h1M601 42h1M601 6h1M601 75h1M601 49h1M601 73h1M601 43h1M601 5h1M601 76h1M601 51h1M601 7h1M601 70h1M601 35h1M601 9h1M601 63h1M601 21h1M601 30h1M601 15h1M601 46h1M601 10h1M601 61h1M601 17h1M601 39h1M601 72h1M601 40h1M601 41h1M601 74h1M601 50h1M601 71h1M601 38h1M601 62h1M601 20h1M601 33h1M601 11h1M601 57h1M601 13h1M601 52h1M601 66h1M601 27h1M601 19h1M601 45h1M602 43h1M602 5h1M602 76h1M602 51h1M602 7h1M602 70h1M602 35h1M602 10h1M602 61h1M602 18h1M602 38h1M602 69h1M602 34h1M602 11h1M602 58h1M602 13h1M602 36h1M602 9h1M602 64h1M602 23h1M602 26h1M602 21h1M602 31h1M602 50h1M602 71h1M602 37h1M602 8h1M602 66h1M602 27h1M602 19h1M602 17h1M602 40h1M602 6h1M602 73h1M602 42h1M602 75h1M602 49h1M602 72h1M602 74h1M602 44h1M602 52h1M602 68h1M602 14h1M602 48h1M603 15h1M603 46h1M603 5h1M603 76h1M603 51h1M603 7h1M603 69h1M603 33h1M603 11h1M603 56h1M603 57h1M603 12h1M603 54h1M603 9h1M603 62h1M603 20h1M603 34h1M603 10h1M603 59h1M603 14h1M603 47h1M603 6h1M603 75h1M603 49h1M603 73h1M603 43h1M603 52h1M603 68h1M603 31h1M603 13h1M603 70h1M603 35h1M603 19h1M603 63h1M603 21h1M603 30h1M603 44h1M603 8h1M603 67h1M603 29h1M603 16h1M603 42h1M603 74h1M604 48h1M604 6h1M604 75h1M604 47h1M604 5h1M604 49h1M604 73h1M604 41h1M604 43h1M604 76h1M604 51h1M604 7h1M604 70h1M604 35h1M604 9h1M604 62h1M604 20h1M604 33h1M604 11h1M604 57h1M604 13h1M604 52h1M604 8h1M604 67h1M604 30h1M604 15h1M604 44h1M604 28h1M604 17h1M604 39h1M604 72h1M604 74h1M604 50h1M604 71h1M604 37h1M604 68h1M604 45h1M605 14h1M605 48h1M605 6h1M605 74h1M605 46h1M605 5h1M605 76h1M605 51h1M605 7h1M605 70h1M605 36h1M605 9h1M605 64h1M605 23h1M605 27h1M605 19h1M605 8h1M605 66h1M605 25h1M605 22h1M605 29h1M605 16h1M605 42h1M605 75h1M605 45h1M605 52h1M605 67h1M605 28h1M605 17h1M605 39h1M605 72h1M605 40h1M605 73h1M605 43h1M605 35h1M605 63h1M605 21h1M605 30h1M605 15h1M605 20h1M605 32h1M605 12h1M605 54h1M605 31h1M605 49h1M606 24h1M606 25h1M606 23h1M606 27h1M606 20h1M606 34h1M606 10h1M606 59h1M606 15h1M606 46h1M606 5h1M606 76h1M606 52h1M606 7h1M606 69h1M606 32h1M606 12h1M606 53h1M606 9h1M606 64h1M606 26h1M606 21h1M606 30h1M606 45h1M606 77h1M606 8h1M606 66h1M606 13h1M606 68h1M606 31h1M606 50h1M606 6h1M606 72h1M606 40h1M606 73h1M606 43h1M606 14h1M606 49h1M606 51h1M606 71h1M606 37h1M607 77h1M607 53h1M607 9h1M607 64h1M607 23h1M607 26h1M607 21h1M607 32h1M607 13h1M607 52h1M607 7h1M607 69h1M607 12h1M607 8h1M607 66h1M607 27h1M607 19h1M607 34h1M607 10h1M607 60h1M607 16h1M607 44h1M607 5h1M607 65h1M607 24h1M607 25h1M607 22h1M607 18h1M607 36h1M607 20h1M607 33h1M607 11h1M607 57h1M607 54h1M607 61h1M607 38h1M607 55h1M607 58h1M607 14h1M607 48h1M607 6h1M607 75h1M607 47h1M607 76h1M607 50h1M607 71h1M607 39h1M608 21h1M608 30h1M608 15h1M608 46h1M608 5h1M608 77h1M608 53h1M608 9h1M608 65h1M608 24h1M608 25h1M608 23h1M608 26h1M608 22h1M608 29h1M608 16h1M608 44h1M608 54h1M608 64h1M608 27h1M608 19h1M608 36h1M608 52h1M608 8h1M608 67h1M608 28h1M608 17h1M608 40h1M608 6h1M608 74h1M608 45h1M608 63h1M608 66h1M608 20h1M608 32h1M608 12h1M608 13h1M608 68h1M608 76h1M609 12h1M609 52h1M609 8h1M609 67h1M609 28h1M609 17h1M609 39h1M609 6h1M609 73h1M609 42h1M609 5h1M609 76h1M609 50h1M609 72h1M609 41h1M609 75h1M609 48h1M609 49h1M609 43h1M609 77h1M609 53h1M609 65h1M609 24h1M609 25h1M609 22h1M609 29h1M609 47h1M609 51h1M609 7h1M609 69h1M609 33h1M609 11h1M609 57h1M609 18h1M609 38h1M609 71h1M609 37h1M609 40h1M609 74h1M609 45h1M609 54h1M609 9h1M609 63h1M609 21h1M609 30h1M609 14h1M609 68h1M610 10h1M610 61h1M610 18h1M610 38h1M610 7h1M610 70h1M610 34h1M610 60h1M610 15h1M610 44h1M610 5h1M610 77h1M610 54h1M610 62h1M610 36h1M610 8h1M610 67h1M610 28h1M610 71h1M610 37h1M610 68h1M610 30h1M610 14h1M610 47h1M610 76h1M610 51h1M610 35h1M610 9h1M610 19h1M610 17h1M610 39h1M610 6h1M610 72h1M610 73h1M610 42h1M610 69h1M610 32h1M610 12h1M610 53h1M610 66h1M610 26h1M610 21h1M610 29h1M611 5h1M611 77h1M611 53h1M611 8h1M611 65h1M611 24h1M611 25h1M611 23h1M611 27h1M611 19h1M611 34h1M611 10h1M611 61h1M611 17h1M611 39h1M611 6h1M611 73h1M611 42h1M611 76h1M611 52h1M611 7h1M611 69h1M611 32h1M611 12h1M611 54h1M611 9h1M611 64h1M611 18h1M611 72h1M611 67h1M611 28h1M611 37h1M611 68h1M611 30h1M611 15h1M611 46h1M611 62h1M611 20h1M611 33h1M611 11h1M611 57h1M611 63h1M611 21h1M611 31h1M611 13h1M611 50h1M612 47h1M612 5h1M612 77h1M612 53h1M612 8h1M612 65h1M612 25h1M612 22h1M612 28h1M612 18h1M612 37h1M612 7h1M612 69h1M612 33h1M612 11h1M612 58h1M612 14h1M612 49h1M612 6h1M612 74h1M612 46h1M612 54h1M612 9h1M612 62h1M612 36h1M612 66h1M612 27h1M612 20h1M612 34h1M612 10h1M612 59h1M612 48h1M612 76h1M612 50h1M612 72h1M612 41h1M612 75h1M612 45h1M612 55h1M612 15h1M612 60h1M612 16h1M612 42h1M612 52h1M612 32h1M612 13h1M612 68h1M612 30h1M613 61h1M613 18h1M613 37h1M613 7h1M613 69h1M613 33h1M613 11h1M613 57h1M613 12h1M613 53h1M613 8h1M613 66h1M613 25h1M613 22h1M613 29h1M613 16h1M613 42h1M613 5h1M613 77h1M613 9h1M613 65h1M613 24h1M613 23h1M613 27h1M613 19h1M613 34h1M613 10h1M613 17h1M613 41h1M613 6h1M613 75h1M613 48h1M613 76h1M613 49h1M613 73h1M613 44h1M613 78h1M613 55h1M613 59h1M613 15h1M613 46h1M613 60h1M613 47h1M613 67h1M613 28h1M613 40h1M613 51h1M613 71h1M613 36h1M614 34h1M614 10h1M614 61h1M614 17h1M614 40h1M614 6h1M614 74h1M614 45h1M614 5h1M614 78h1M614 56h1M614 11h1M614 57h1M614 12h1M614 54h1M614 9h1M614 64h1M614 22h1M614 29h1M614 16h1M614 42h1M614 76h1M614 52h1M614 8h1M614 68h1M614 30h1M614 14h1M614 48h1M614 51h1M614 7h1M614 71h1M614 36h1M614 67h1M614 27h1M614 18h1M614 37h1M614 77h1M614 28h1M614 39h1M614 72h1M614 75h1M614 47h1M614 53h1M614 65h1M614 25h1M614 44h1M615 27h1M615 20h1M615 34h1M615 10h1M615 59h1M615 14h1M615 47h1M615 5h1M615 77h1M615 53h1M615 8h1M615 66h1M615 25h1M615 22h1M615 29h1M615 16h1M615 43h1M615 55h1M615 61h1M615 17h1M615 41h1M615 75h1M615 49h1M615 6h1M615 74h1M615 46h1M615 60h1M615 76h1M615 50h1M615 72h1M615 40h1M615 44h1M615 78h1M615 56h1M615 11h1M615 58h1M615 13h1M615 48h1M615 51h1M615 7h1M615 71h1M615 38h1M616 12h1M616 53h1M616 8h1M616 67h1M616 29h1M616 17h1M616 41h1M616 5h1M616 76h1M616 50h1M616 6h1M616 73h1M616 42h1M616 77h1M616 52h1M616 68h1M616 15h1M616 44h1M616 78h1M616 57h1M616 55h1M616 10h1M616 61h1M616 18h1M616 38h1M616 7h1M616 70h1M616 35h1M616 9h1M616 63h1M616 20h1M616 31h1M616 13h1M616 69h1M616 33h1M616 11h1M616 54h1M616 62h1M616 59h1M616 14h1M616 47h1M616 28h1M616 39h1M616 71h1M616 37h1M616 32h1M617 51h1M617 7h1M617 71h1M617 38h1M617 37h1M617 68h1M617 31h1M617 13h1M617 50h1M617 6h1M617 73h1M617 41h1M617 5h1M617 76h1M617 52h1M617 70h1M617 34h1M617 10h1M617 61h1M617 17h1M617 39h1M617 42h1M617 77h1M617 55h1M617 40h1M617 74h1M617 46h1M617 78h1M617 56h1M617 11h1M617 58h1M617 35h1M617 9h1M617 65h1M617 24h1M617 25h1M617 22h1M617 27h1M617 19h1M617 36h1M617 8h1M617 66h1M617 26h1M617 20h1M617 33h1M617 57h1M617 12h1M617 62h1M617 23h1M617 21h1M618 37h1M618 8h1M618 68h1M618 30h1M618 14h1M618 48h1M618 5h1M618 77h1M618 53h1M618 67h1M618 29h1M618 16h1M618 43h1M618 78h1M618 56h1M618 11h1M618 57h1M618 12h1M618 65h1M618 24h1M618 25h1M618 22h1M618 28h1M618 18h1M618 38h1M618 7h1M618 70h1M618 36h1M618 66h1M618 26h1M618 21h1M618 31h1M618 13h1M618 52h1M618 35h1M618 9h1M618 62h1M618 19h1M618 34h1M618 10h1M618 61h1M618 71h1M618 15h1M618 44h1M618 76h1M618 50h1M619 13h1M619 51h1M619 7h1M619 72h1M619 39h1M619 6h1M619 73h1M619 42h1M619 5h1M619 77h1M619 53h1M619 8h1M619 65h1M619 25h1M619 22h1M619 28h1M619 17h1M619 41h1M619 52h1M619 68h1M619 30h1M619 14h1M619 47h1M619 54h1M619 9h1M619 64h1M619 18h1M619 38h1M619 71h1M619 36h1M619 67h1M619 29h1M619 16h1M619 55h1M619 62h1M619 19h1M619 27h1M620 74h1M620 46h1M620 5h1M620 78h1M620 57h1M620 12h1M620 52h1M620 7h1M620 68h1M620 31h1M620 13h1M620 50h1M620 6h1M620 45h1M620 58h1M620 73h1M620 42h1M620 56h1M620 11h1M620 51h1M620 71h1M620 37h1M620 8h1M620 14h1M620 49h1M620 76h1M620 75h1M620 47h1M620 77h1M620 55h1M620 10h1M620 61h1M620 17h1M620 41h1M620 70h1M620 35h1M620 9h1M620 65h1M620 23h1M620 25h1M620 22h1M620 28h1M620 39h1M620 43h1M621 56h1M621 11h1M621 58h1M621 13h1M621 51h1M621 7h1M621 71h1M621 37h1M621 70h1M621 35h1M621 8h1M621 65h1M621 25h1M621 23h1M621 26h1M621 20h1M621 33h1M621 57h1M621 12h1M621 55h1M621 10h1M621 61h1M621 17h1M621 39h1M621 6h1M621 74h1M621 44h1M621 5h1M621 79h1M621 59h1M621 14h1M621 48h1M621 77h1M621 53h1M621 68h1M621 29h1M621 15h1M621 49h1M621 75h1M621 47h1M621 78h1M621 9h1M621 62h1M621 19h1M621 34h1M622 9h1M622 65h1M622 23h1M622 26h1M622 21h1M622 30h1M622 14h1M622 48h1M622 5h1M622 76h1M622 52h1M622 7h1M622 70h1M622 34h1M622 10h1M622 61h1M622 17h1M622 40h1M622 6h1M622 75h1M622 77h1M622 53h1M622 8h1M622 67h1M622 28h1M622 47h1M622 55h1M622 51h1M622 71h1M622 36h1M622 68h1M622 46h1M622 78h1M622 57h1M622 12h1M622 54h1M622 64h1M622 22h1M622 29h1M622 16h1M622 42h1M622 73h1M622 41h1M623 5h1M623 78h1M623 56h1M623 10h1M623 59h1M623 14h1M623 49h1M623 76h1M623 50h1M623 6h1M623 73h1M623 42h1M623 57h1M623 12h1M623 54h1M623 9h1M623 64h1M623 21h1M623 29h1M623 15h1M623 44h1M623 4h1M623 79h1M623 45h1M623 46h1M623 53h1M623 8h1M623 67h1M623 16h1M623 43h1M623 74h1M623 58h1M623 13h1M623 66h1M623 25h1M623 22h1M623 28h1M623 18h1M623 38h1M623 72h1M623 41h1M623 77h1M624 4h1M624 79h1M624 60h1M624 15h1M624 44h1M624 45h1M624 16h1M624 5h1M624 59h1M624 46h1M624 58h1M624 14h1M624 49h1M624 75h1M624 76h1M624 50h1M624 6h1M624 74h1M625 19h1M625 34h1M625 10h1M625 61h1M625 16h1M625 41h1M625 5h1M625 77h1M625 55h1M625 9h1M625 62h1M625 18h1M625 37h1M625 7h1M625 69h1M625 33h1M625 59h1M625 14h1M625 48h1M625 53h1M625 8h1M625 68h1M625 30h1M625 15h1M625 46h1M625 79h1M625 54h1M625 65h1M625 24h1M625 25h1M625 22h1M625 27h1M625 36h1M625 29h1M625 45h1M625 4h1M625 60h1M625 42h1M625 78h1M625 57h1M625 12h1M625 47h1M625 58h1M625 13h1M625 51h1M625 6h1M625 73h1M625 56h1M626 61h1M626 18h1M626 38h1M626 6h1M626 72h1M626 41h1M626 5h1M626 77h1M626 53h1M626 8h1M626 67h1M626 29h1M626 16h1M626 43h1M626 79h1M626 59h1M626 14h1M626 47h1M626 78h1M626 58h1M626 13h1M626 52h1M626 7h1M626 70h1M626 35h1M626 9h1M626 64h1M626 22h1M626 28h1M626 17h1M626 39h1M626 74h1M626 45h1M626 4h1M626 60h1M626 42h1M626 56h1M626 11h1M626 57h1M626 10h1M626 50h1M626 75h1M626 46h1M626 48h1M626 54h1M626 55h1M627 5h1M627 78h1M627 56h1M627 10h1M627 59h1M627 14h1M627 48h1M627 77h1M627 54h1M627 8h1M627 65h1M627 24h1M627 23h1M627 25h1M627 22h1M627 28h1M627 17h1M627 39h1M627 6h1M627 75h1M627 47h1M627 57h1M627 11h1M627 58h1M627 12h1M627 53h1M627 7h1M627 68h1M627 30h1M627 49h1M627 76h1M627 50h1M627 74h1M627 44h1M627 4h1M627 79h1M627 61h1M627 60h1M627 15h1M627 46h1M628 59h1M628 14h1M628 47h1M628 5h1M628 78h1M628 57h1M628 12h1M628 54h1M628 9h1M628 65h1M628 23h1M628 26h1M628 21h1M628 31h1M628 13h1M628 51h1M628 6h1M628 73h1M628 43h1M628 4h1M628 79h1M628 60h1M628 16h1M628 42h1M628 48h1M628 56h1M628 11h1M628 10h1M628 58h1M628 49h1M628 75h1M628 76h1M628 72h1M628 41h1M628 77h1M628 8h1M628 24h1M628 30h1M628 55h1M628 62h1M628 19h1M628 34h1M628 36h1M628 67h1M628 28h1M628 18h1M628 38h1M628 7h1M629 8h1M629 66h1M629 26h1M629 20h1M629 33h1M629 10h1M629 58h1M629 13h1M629 49h1M629 5h1M629 75h1M629 76h1M629 51h1M629 6h1M629 72h1M629 41h1M629 77h1M629 54h1M629 65h1M629 25h1M629 23h1M629 59h1M629 14h1M629 48h1M629 55h1M629 9h1M629 62h1M629 18h1M629 37h1M629 7h1M629 70h1M629 35h1M629 64h1M629 22h1M629 28h1M629 17h1M629 40h1M629 39h1M629 47h1M629 78h1M629 57h1M629 12h1M629 53h1M629 67h1M629 74h1M629 45h1M629 4h1M629 80h1M629 69h1M629 11h1M630 7h1M630 69h1M630 32h1M630 12h1M630 54h1M630 8h1M630 65h1M630 24h1M630 23h1M630 26h1M630 21h1M630 30h1M630 14h1M630 47h1M630 5h1M630 79h1M630 59h1M630 48h1M630 77h1M630 55h1M630 9h1M630 62h1M630 19h1M630 35h1M630 66h1M630 25h1M630 22h1M630 27h1M630 18h1M630 37h1M630 70h1M630 34h1M630 71h1M630 38h1M630 6h1M630 73h1M630 42h1M630 78h1M630 57h1M630 64h1M630 29h1M630 16h1M630 43h1M630 4h1M630 60h1M630 61h1M630 17h1M630 39h1M630 74h1M630 44h1M631 63h1M631 20h1M631 33h1M631 10h1M631 59h1M631 15h1M631 46h1M631 4h1M631 80h1M631 62h1M631 18h1M631 38h1M631 6h1M631 72h1M631 39h1M631 75h1M631 47h1M631 79h1M631 60h1M631 44h1M631 19h1M631 34h1M631 61h1M631 17h1M631 74h1M631 58h1M631 13h1M631 50h1M631 45h1M631 9h1M632 25h1M632 22h1M632 29h1M632 16h1M632 43h1M632 4h1M632 80h1M632 62h1M632 18h1M632 36h1M632 8h1M632 68h1M632 15h1M632 63h1M632 20h1M632 33h1M632 10h1M632 60h1M632 45h1M632 11h1M632 58h1M632 13h1M632 51h1M632 6h1M632 73h1M632 41h1M632 5h1M632 78h1M632 57h1M632 12h1M632 54h1M632 65h1M632 23h1M632 21h1M632 30h1M632 14h1M632 46h1M632 79h1M632 61h1M632 17h1M632 39h1M632 75h1M632 48h1M632 77h1M632 9h1M632 64h1M632 44h1M632 32h1M632 55h1M632 31h1M632 50h1M633 11h1M633 57h1M633 56h1M633 58h1M633 12h1M633 52h1M633 7h1M633 69h1M633 33h1M633 10h1M633 60h1M633 15h1M633 45h1M633 4h1M633 80h1M633 64h1M633 21h1M633 29h1M633 63h1M633 31h1M633 13h1M633 51h1M633 6h1M633 73h1M633 41h1M633 5h1M633 78h1M633 55h1M633 61h1M633 16h1M633 42h1M633 79h1M633 59h1M633 14h1M633 46h1M633 62h1M633 18h1M633 36h1M633 8h1M633 67h1M633 28h1M633 70h1M633 34h1M633 9h1M633 38h1M633 47h1M634 51h1M634 6h1M634 73h1M634 41h1M634 5h1M634 79h1M634 59h1M634 14h1M634 48h1M634 78h1M634 56h1M634 10h1M634 13h1M634 50h1M634 76h1M634 75h1M634 47h1M634 4h1M634 60h1M634 16h1M634 42h1M634 43h1M634 80h1M634 63h1M634 20h1M634 31h1M634 12h1M634 53h1M634 8h1M634 67h1M634 28h1M634 17h1M634 40h1M634 77h1M634 7h1M634 69h1M634 68h1M634 62h1M634 18h1M634 38h1M634 72h1M635 34h1M635 9h1M635 61h1M635 17h1M635 38h1M635 6h1M635 74h1M635 45h1M635 4h1M635 80h1M635 65h1M635 23h1M635 26h1M635 20h1M635 32h1M635 11h1M635 56h1M635 10h1M635 59h1M635 15h1M635 46h1M635 63h1M635 31h1M635 13h1M635 52h1M635 7h1M635 71h1M635 37h1M635 73h1M635 42h1M635 62h1M635 19h1M635 35h1M635 8h1M635 66h1M635 21h1M635 51h1M635 60h1M635 30h1M635 50h1M635 5h1M635 76h1M635 49h1M635 77h1M636 32h1M636 11h1M636 55h1M636 9h1M636 62h1M636 18h1M636 36h1M636 7h1M636 68h1M636 31h1M636 13h1M636 51h1M636 6h1M636 73h1M636 41h1M636 5h1M636 79h1M636 58h1M636 74h1M636 45h1M636 4h1M636 81h1M636 65h1M636 24h1M636 23h1M636 26h1M636 20h1M636 12h1M636 54h1M636 64h1M636 22h1M636 27h1M636 19h1M636 35h1M636 8h1M636 66h1M636 25h1M636 28h1M636 17h1M636 39h1M636 46h1M636 80h1M636 21h1M636 29h1M636 16h1M636 43h1M636 40h1M636 77h1M636 63h1M636 33h1M636 10h1M636 50h1M636 75h1M636 48h1M636 78h1M637 23h1M637 27h1M637 19h1M637 34h1M637 9h1M637 63h1M637 20h1M637 33h1M637 10h1M637 58h1M637 13h1M637 51h1M637 6h1M637 74h1M637 45h1M637 4h1M637 81h1M637 65h1M637 24h1M637 25h1M637 21h1M637 30h1M637 14h1M637 48h1M637 5h1M637 79h1M637 59h1M637 49h1M637 77h1M637 53h1M637 8h1M637 67h1M637 29h1M637 16h1M637 43h1M637 80h1M637 32h1M637 11h1M637 55h1M637 62h1M637 64h1M637 22h1M637 28h1M637 42h1M637 61h1M637 18h1M637 38h1M637 73h1M637 36h1M637 7h1M637 69h1M638 62h1M638 19h1M638 35h1M638 8h1M638 65h1M638 24h1M638 23h1M638 25h1M638 21h1M638 29h1M638 16h1M638 43h1M638 4h1M638 80h1M638 64h1M638 26h1M638 34h1M638 10h1M638 61h1M638 17h1M638 39h1M638 5h1M638 76h1M638 51h1M638 6h1M638 73h1M638 15h1M638 45h1M638 81h1M638 66h1M638 44h1M638 20h1M638 32h1M638 11h1M638 55h1M638 41h1M638 78h1M638 57h1M638 56h1M638 59h1M638 14h1M638 47h1M638 63h1M638 58h1M638 13h1M638 50h1M638 75h1M639 15h1M639 45h1M639 4h1M639 81h1M639 66h1M639 26h1M639 20h1M639 33h1M639 10h1M639 58h1M639 13h1M639 51h1M639 6h1M639 75h1M639 47h1M639 80h1M639 64h1M639 21h1M639 30h1M639 14h1M639 48h1M639 5h1M639 79h1M639 62h1M639 18h1M639 37h1M639 7h1M639 71h1M639 38h1M639 73h1M639 43h1M639 65h1M639 23h1M639 31h1M639 12h1M639 54h1M639 8h1M639 67h1M639 28h1M639 17h1M639 40h1M639 77h1M639 53h1M639 68h1M639 50h1M639 76h1M639 49h1M640 46h1M640 4h1M640 80h1M640 64h1M640 22h1M640 27h1M640 18h1M640 36h1M640 7h1M640 69h1M640 32h1M640 12h1M640 54h1M640 8h1M640 66h1M640 25h1M640 21h1M640 29h1M640 15h1M640 45h1M640 81h1M640 26h1M640 20h1M640 33h1M640 10h1M640 58h1M640 13h1M640 52h1M640 6h1M640 72h1M640 40h1M640 5h1M640 77h1M640 67h1M640 28h1M640 16h1M640 42h1M640 62h1M640 31h1M640 39h1M640 75h1M640 49h1M640 78h1M640 56h1M640 59h1M640 14h1M640 47h1M640 63h1M640 19h1M640 34h1M640 9h1M640 61h1M640 17h1M641 69h1M641 32h1M641 11h1M641 57h1M641 55h1M641 9h1M641 62h1M641 19h1M641 35h1M641 8h1M641 65h1M641 24h1M641 23h1M641 25h1M641 21h1M641 29h1M641 15h1M641 44h1M641 4h1M641 81h1M641 67h1M641 27h1M641 22h1M641 28h1M641 17h1M641 40h1M641 5h1M641 78h1M641 61h1M641 39h1M641 75h1M641 48h1M641 79h1M641 60h1M641 45h1M641 18h1M641 36h1M641 7h1M641 70h1M641 33h1M641 10h1M642 5h1M642 78h1M642 58h1M642 12h1M642 52h1M642 7h1M642 70h1M642 35h1M642 8h1M642 68h1M642 29h1M642 16h1M642 43h1M642 4h1M642 81h1M642 66h1M642 25h1M642 21h1M642 30h1M642 13h1M642 49h1M642 77h1M642 54h1M642 67h1M642 28h1M642 41h1M642 79h1M642 60h1M642 14h1M642 46h1M642 26h1M642 20h1M642 31h1M642 53h1M642 65h1M642 24h1M642 23h1M642 34h1M642 9h1M642 63h1M642 32h1M642 11h1M642 55h1M642 62h1M642 18h1M642 36h1M642 69h1M642 33h1M643 6h1M643 75h1M643 46h1M643 4h1M643 81h1M643 66h1M643 26h1M643 20h1M643 32h1M643 11h1M643 57h1M643 55h1M643 9h1M643 62h1M643 19h1M643 35h1M643 8h1M643 65h1M643 24h1M643 23h1M643 56h1M643 10h1M643 61h1M643 17h1M643 40h1M643 5h1M643 78h1M643 39h1M643 76h1M643 49h1M643 63h1M643 21h1M643 30h1M643 13h1M643 50h1M643 51h1M643 74h1M643 44h1M643 68h1M643 29h1M643 15h1M643 67h1M643 28h1M644 31h1M644 12h1M644 52h1M644 6h1M644 72h1M644 40h1M644 5h1M644 78h1M644 56h1M644 10h1M644 59h1M644 13h1M644 49h1M644 57h1M644 11h1M644 61h1M644 17h1M644 55h1M644 9h1M644 63h1M644 20h1M644 32h1M644 58h1M644 54h1M644 8h1M644 66h1M644 26h1M644 19h1M644 34h1M644 33h1M644 16h1M644 41h1M644 4h1M644 80h1M644 62h1M644 35h1M644 50h1M644 76h1M644 14h1M644 48h1M644 79h1M645 10h1M645 59h1M645 13h1M645 50h1M645 5h1M645 77h1M645 53h1M645 7h1M645 69h1M645 32h1M645 11h1M645 56h1M645 58h1M645 52h1M645 6h1M645 73h1M645 41h1M645 4h1M645 80h1M645 61h1M645 17h1M645 39h1M645 70h1M645 35h1M645 8h1M645 65h1M645 24h1M645 23h1M645 26h1M645 20h1M645 31h1M645 12h1M645 54h1M645 66h1M645 19h1M645 34h1M645 9h1M645 62h1M645 18h1M645 38h1M645 74h1M645 44h1M645 82h1M645 55h1M645 63h1M645 21h1M645 30h1M645 51h1M645 75h1M645 49h1M645 79h1M645 14h1M646 82h1M646 69h1M646 33h1M646 10h1M646 60h1M646 14h1M646 47h1M646 4h1M646 81h1M646 67h1M646 27h1M646 19h1M646 35h1M646 8h1M646 66h1M646 25h1M646 21h1M646 29h1M646 15h1M646 44h1M646 59h1M646 13h1M646 51h1M646 5h1M646 75h1M646 49h1M646 79h1M646 50h1M646 76h1M646 6h1M646 74h1M646 45h1M646 46h1M646 68h1M646 30h1M646 48h1M646 80h1M646 62h1M646 17h1M646 38h1M646 65h1M646 23h1M646 16h1M646 43h1M647 80h1M647 61h1M647 17h1M647 39h1M647 5h1M647 76h1M647 50h1M647 51h1M647 6h1M647 74h1M647 46h1M647 4h1M647 82h1M647 69h1M647 32h1M647 11h1M647 58h1M647 12h1M647 53h1M647 7h1M647 55h1M647 9h1M647 62h1M647 18h1M647 36h1M647 71h1M647 31h1M647 52h1M647 37h1M647 73h1M647 42h1M647 81h1M647 66h1M647 25h1M647 22h1M647 27h1M647 38h1M647 49h1M647 78h1M647 56h1M647 10h1M647 59h1M647 13h1M647 77h1M647 72h1M648 24h1M648 23h1M648 26h1M648 20h1M648 31h1M648 12h1M648 52h1M648 6h1M648 72h1M648 40h1M648 4h1M648 79h1M648 60h1M648 15h1M648 45h1M648 82h1M648 70h1M648 35h1M648 8h1M648 67h1M648 27h1M648 18h1M648 36h1M648 7h1M648 69h1M648 32h1M648 10h1M648 58h1M648 53h1M648 34h1M648 65h1M648 25h1M648 22h1M648 28h1M648 16h1M648 41h1M648 80h1M648 63h1M648 33h1M648 59h1M648 14h1M648 47h1M648 81h1M648 66h1M648 17h1M648 5h1M648 78h1M648 54h1M648 49h1M648 46h1M649 44h1M649 4h1M649 82h1M649 71h1M649 36h1M649 7h1M649 70h1M649 34h1M649 9h1M649 63h1M649 20h1M649 32h1M649 11h1M649 55h1M649 19h1M649 33h1M649 10h1M649 60h1M649 15h1M649 62h1M649 18h1M649 69h1M649 59h1M649 13h1M649 50h1M649 5h1M649 76h1M649 52h1M649 6h1M649 73h1M649 43h1M649 57h1M649 58h1M649 12h1M649 53h1M649 16h1M649 14h1M649 46h1M649 31h1M650 60h1M650 15h1M650 43h1M650 4h1M650 82h1M650 71h1M650 36h1M650 7h1M650 69h1M650 31h1M650 12h1M650 53h1M650 33h1M650 10h1M650 59h1M650 14h1M650 49h1M650 79h1M650 61h1M650 16h1M650 47h1M650 81h1M650 67h1M650 28h1M650 17h1M650 39h1M650 5h1M650 77h1M650 37h1M650 6h1M650 72h1M650 40h1M650 70h1M650 35h1M650 8h1M650 66h1M650 26h1M650 20h1M650 32h1M650 11h1M650 56h1M650 44h1M650 73h1M651 54h1M651 8h1M651 66h1M651 24h1M651 23h1M651 26h1M651 20h1M651 32h1M651 11h1M651 56h1M651 10h1M651 60h1M651 15h1M651 44h1M651 3h1M651 83h1M651 72h1M651 39h1M651 5h1M651 76h1M651 52h1M651 6h1M651 74h1M651 43h1M651 4h1M651 82h1M651 71h1M651 37h1M651 40h1M651 79h1M651 59h1M651 14h1M651 47h1M651 81h1M651 68h1M651 29h1M651 45h1M651 77h1M651 73h1M651 70h1M651 34h1M651 9h1M651 63h1M651 31h1M651 12h1M651 55h1M651 65h1M651 25h1M651 13h1M651 51h1M651 38h1M651 50h1M652 71h1M652 36h1M652 7h1M652 70h1M652 34h1M652 9h1M652 62h1M652 19h1M652 35h1M652 8h1M652 67h1M652 27h1M652 18h1M652 64h1M652 22h1M652 28h1M652 17h1M652 39h1M652 5h1M652 78h1M652 56h1M652 10h1M652 60h1M652 15h1M652 45h1M652 3h1M652 83h1M652 72h1M652 40h1M652 4h1M652 79h1M652 59h1M652 13h1M652 50h1M652 57h1M652 11h1M652 58h1M652 12h1M652 54h1M652 38h1M652 76h1M652 49h1M652 80h1M652 61h1M652 16h1M652 42h1M652 82h1M652 69h1M653 12h1M653 54h1M653 8h1M653 67h1M653 27h1M653 18h1M653 35h1M653 7h1M653 69h1M653 31h1M653 53h1M653 71h1M653 37h1M653 6h1M653 72h1M653 39h1M653 5h1M653 78h1M653 55h1M653 9h1M653 63h1M653 20h1M653 32h1M653 11h1M653 56h1M653 10h1M653 60h1M653 15h1M653 45h1M653 3h1M653 83h1M653 73h1M653 41h1M653 4h1M653 81h1M653 65h1M653 23h1M653 26h1M653 33h1M653 25h1M653 22h1M653 28h1M653 16h1M653 66h1M653 36h1M653 70h1M653 34h1M653 64h1M653 21h1M653 29h1M653 40h1M654 61h1M654 16h1M654 43h1M654 4h1M654 82h1M654 71h1M654 36h1M654 7h1M654 37h1M654 6h1M654 74h1M654 45h1M654 3h1M654 83h1M654 73h1M654 42h1M654 70h1M654 35h1M654 8h1M654 67h1M654 27h1M654 18h1M654 72h1M654 40h1M654 80h1M654 62h1M654 39h1M654 5h1M654 77h1M654 53h1M654 38h1M654 75h1M654 47h1M654 69h1M654 31h1M654 12h1M654 48h1M655 3h1M655 83h1M655 73h1M655 43h1M655 72h1M655 38h1M655 5h1M655 77h1M655 52h1M655 6h1M655 74h1M655 44h1M655 4h1M655 76h1M655 50h1M655 78h1M655 56h1M655 9h1M655 61h1M655 16h1M655 41h1M655 80h1M655 64h1M655 21h1M655 30h1M655 13h1M655 54h1M655 8h1M655 66h1M655 26h1M655 19h1M655 33h1M655 62h1M655 17h1M655 39h1M655 55h1M655 63h1M655 34h1M655 18h1M655 75h1M655 46h1M655 53h1M656 3h1M656 83h1M656 74h1M656 44h1M656 45h1M657 71h1M657 37h1M657 6h1M657 75h1M657 46h1M657 3h1M657 83h1M657 74h1M657 43h1M657 44h1M657 73h1M657 72h1M657 40h1M657 4h1M657 79h1M657 60h1M657 14h1M657 47h1M657 38h1M657 5h1M657 76h1M657 49h1M657 80h1M657 64h1M657 20h1M657 31h1M657 12h1M657 52h1M657 61h1M657 17h1M657 39h1M657 58h1M657 53h1M657 7h1M657 70h1M657 35h1M657 8h1M657 68h1M657 29h1M657 15h1M657 45h1M658 83h1M658 73h1M658 43h1M658 3h1M658 42h1M658 4h1M658 82h1M658 71h1M658 36h1M658 7h1M658 70h1M658 34h1M658 9h1M658 64h1M658 21h1M658 29h1M658 14h1M658 46h1M658 74h1M658 45h1M658 84h1M658 75h1M658 48h1M658 68h1M658 30h1M658 13h1M658 49h1M658 80h1M658 63h1M658 20h1M658 32h1M658 10h1M658 59h1M658 50h1M658 5h1M658 77h1M658 54h1M658 8h1M658 15h1M658 47h1M658 69h1M658 79h1M658 51h1M658 76h1M659 13h1M659 51h1M659 5h1M659 77h1M659 53h1M659 6h1M659 72h1M659 39h1M659 79h1M659 58h1M659 12h1M659 7h1M659 71h1M659 37h1M659 73h1M659 43h1M659 3h1M659 83h1M659 74h1M659 44h1M659 84h1M659 75h1M659 49h1M659 4h1M659 81h1M659 65h1M659 23h1M659 24h1M659 26h1M659 20h1M659 32h1M659 11h1M659 57h1M659 10h1M659 59h1M659 50h1M659 45h1M659 76h1M659 80h1M659 63h1M659 19h1M659 33h1M659 61h1M659 16h1M659 46h1M660 75h1M660 48h1M660 4h1M660 82h1M660 69h1M660 32h1M660 11h1M660 57h1M660 10h1M660 59h1M660 13h1M660 50h1M660 5h1M660 78h1M660 56h1M660 60h1M660 14h1M660 46h1M660 3h1M660 84h1M660 31h1M660 12h1M660 54h1M660 7h1M660 68h1M660 30h1M660 51h1M660 77h1M660 47h1M660 83h1M660 72h1M660 38h1M660 81h1M660 66h1M660 25h1M660 22h1M660 28h1M660 17h1M660 40h1M660 80h1M660 61h1M660 16h1M660 41h1M660 21h1M660 29h1M660 15h1M661 8h1M661 66h1M661 25h1M661 22h1M661 28h1M661 16h1M661 42h1M661 3h1M661 83h1M661 72h1M661 39h1M661 4h1M661 79h1M661 59h1M661 13h1M661 50h1M661 5h1M661 78h1M661 55h1M661 9h1M661 64h1M661 21h1M661 30h1M661 49h1M661 81h1M661 65h1M661 24h1M661 23h1M661 26h1M661 20h1M661 32h1M661 11h1M661 56h1M661 62h1M661 18h1M661 37h1M661 75h1M661 47h1M661 82h1M661 71h1M661 36h1M661 7h1M661 6h1M661 73h1M661 41h1M661 67h1M661 68h1M661 29h1M661 15h1M661 45h1M661 84h1M661 77h1M661 52h1M661 74h1M661 43h1M661 48h1M661 69h1M662 72h1M662 39h1M662 4h1M662 79h1M662 59h1M662 12h1M662 52h1M662 5h1M662 75h1M662 47h1M662 83h1M662 38h1M662 76h1M662 49h1M662 81h1M662 65h1M662 23h1M662 24h1M662 22h1M662 26h1M662 19h1M662 35h1M662 8h1M662 67h1M662 27h1M662 17h1M662 77h1M662 54h1M662 7h1M662 69h1M662 31h1M662 11h1M662 55h1M662 25h1M662 20h1M662 53h1M662 70h1M662 34h1M662 9h1M662 63h1M662 32h1M662 56h1M662 61h1M662 16h1M662 41h1M662 82h1M662 33h1M662 10h1M662 15h1M662 43h1M662 3h1M662 84h1M662 51h1M662 6h1M662 74h1M662 44h1M663 64h1M663 21h1M663 30h1M663 13h1M663 51h1M663 5h1M663 77h1M663 54h1M663 7h1M663 69h1M663 31h1M663 11h1M663 55h1M663 9h1M663 50h1M663 4h1M663 80h1M663 61h1M663 16h1M663 41h1M663 82h1M663 71h1M663 36h1M663 6h1M663 72h1M663 38h1M663 76h1M663 49h1M663 63h1M663 20h1M663 32h1M663 56h1M663 10h1M663 42h1M663 3h1M663 83h1M663 75h1M663 46h1M663 84h1M663 53h1M663 40h1M663 19h1M663 34h1M663 29h1M663 14h1M663 48h1M663 70h1M663 35h1M663 68h1M664 59h1M664 12h1M664 52h1M664 6h1M664 75h1M664 46h1M664 3h1M664 84h1M664 76h1M664 50h1M664 5h1M664 78h1M664 57h1M664 11h1M664 10h1M664 13h1M664 51h1M664 79h1M664 58h1M664 54h1M664 7h1M664 70h1M664 33h1M664 9h1M664 63h1M664 20h1M664 32h1M664 14h1M664 48h1M664 4h1M664 82h1M664 34h1M664 8h1M664 65h1M664 23h1M664 26h1M664 77h1M664 53h1M664 66h1M664 25h1M664 22h1M664 28h1M664 16h1M664 41h1M665 84h1M665 78h1M665 55h1M665 8h1M665 65h1M665 24h1M665 23h1M665 25h1M665 22h1M665 27h1M665 17h1M665 38h1M665 5h1M665 77h1M665 54h1M665 7h1M665 70h1M665 34h1M665 9h1M665 64h1M665 20h1M665 30h1M665 12h1M665 52h1M665 6h1M665 74h1M665 45h1M665 3h1M665 79h1M665 58h1M665 73h1M665 42h1M665 75h1M665 48h1M665 4h1M665 83h1M665 71h1M665 37h1M665 72h1M665 76h1M665 51h1M665 50h1M665 57h1M665 10h1M665 69h1M665 32h1M665 59h1M665 13h1M665 49h1M665 81h1M665 67h1M665 28h1M665 16h1M665 41h1M666 82h1M666 69h1M666 32h1M666 10h1M666 58h1M666 11h1M666 55h1M666 8h1M666 66h1M666 24h1M666 23h1M666 25h1M666 21h1M666 28h1M666 16h1M666 43h1M666 3h1M666 84h1M666 77h1M666 54h1M666 7h1M666 70h1M666 34h1M666 9h1M666 64h1M666 29h1M666 15h1M666 45h1M666 85h1M666 79h1M666 60h1M666 14h1M666 47h1M666 83h1M666 74h1M666 59h1M666 13h1M666 50h1M666 4h1M666 80h1M666 61h1M666 17h1M666 40h1M666 81h1M666 42h1M666 75h1M666 46h1M666 68h1M666 44h1M666 78h1M667 4h1M667 79h1M667 59h1M667 13h1M667 51h1M667 5h1M667 78h1M667 56h1M667 9h1M667 63h1M667 19h1M667 34h1M667 8h1M667 66h1M667 25h1M667 20h1M667 30h1M667 12h1M667 52h1M667 6h1M667 75h1M667 46h1M667 3h1M667 84h1M667 58h1M667 54h1M667 7h1M667 70h1M667 24h1M667 22h1M667 26h1M667 18h1M667 35h1M667 67h1M667 27h1M667 17h1M667 38h1M667 77h1M667 69h1M667 31h1M667 53h1M667 73h1M667 42h1M667 47h1M667 83h1M668 23h1M668 24h1M668 26h1M668 20h1M668 32h1M668 10h1M668 58h1M668 11h1M668 55h1M668 8h1M668 66h1M668 59h1M668 13h1M668 50h1M668 4h1M668 80h1M668 62h1M668 17h1M668 38h1M668 5h1M668 78h1M668 57h1M668 49h1M668 82h1M668 69h1M668 60h1M668 14h1M668 47h1M668 3h1M668 84h1M668 76h1M668 51h1M668 56h1M668 61h1M668 15h1M668 43h1M668 85h1M668 40h1M668 81h1M668 25h1M668 22h1M668 27h1M668 39h1M668 79h1M668 48h1M668 83h1M668 72h1M668 67h1M668 18h1M668 37h1M669 77h1M669 52h1M669 5h1M669 76h1M669 49h1M669 4h1M669 82h1M669 69h1M669 31h1M669 12h1M669 54h1M669 7h1M669 32h1M669 10h1M669 60h1M669 14h1M669 48h1M669 3h1M669 83h1M669 72h1M669 40h1M669 81h1M669 67h1M669 26h1M669 19h1M669 34h1M669 8h1M669 65h1M669 24h1M669 23h1M669 25h1M669 21h1M669 29h1M669 15h1M669 44h1M669 85h1M669 66h1M669 20h1M669 71h1M669 35h1M669 11h1M669 57h1M669 59h1M669 6h1M669 74h1M669 64h1M669 22h1M669 27h1M669 17h1M669 39h1M669 80h1M670 65h1M670 23h1M670 25h1M670 21h1M670 29h1M670 14h1M670 46h1M670 3h1M670 85h1M670 81h1M670 20h1M670 31h1M670 11h1M670 55h1M670 8h1M670 67h1M670 26h1M670 19h1M670 34h1M670 27h1M670 17h1M670 38h1M670 5h1M670 78h1M670 57h1M670 10h1M670 59h1M670 13h1M670 49h1M670 4h1M670 18h1M670 36h1M670 6h1M670 72h1M670 79h1M670 58h1M670 68h1M670 28h1M670 16h1M670 42h1M670 84h1M670 77h1M670 52h1M670 74h1M670 45h1M670 73h1M670 76h1M670 82h1M671 8h1M671 65h1M671 23h1M671 25h1M671 20h1M671 31h1M671 11h1M671 56h1M671 9h1M671 62h1M671 17h1M671 38h1M671 5h1M671 78h1M671 63h1M671 19h1M671 33h1M671 10h1M671 61h1M671 15h1M671 44h1M671 3h1M671 85h1M671 82h1M671 69h1M671 12h1M671 53h1M671 7h1M671 71h1M671 36h1M671 6h1M671 72h1M671 39h1M671 4h1M671 80h1M671 35h1M671 68h1M671 30h1M671 13h1M671 50h1M671 79h1M671 43h1M671 81h1M671 67h1M671 26h1M671 16h1M671 41h1M671 83h1M671 18h1M672 17h1M672 40h1M672 4h1M672 81h1M672 66h1M672 25h1M672 21h1M672 28h1M672 16h1M672 42h1M672 3h1M672 84h1M672 78h1M672 56h1M672 10h1M672 61h1M672 15h1M672 43h1M672 85h1M672 82h1M672 69h1M672 30h1M672 13h1M672 51h1M672 5h1M672 77h1M672 54h1M672 7h1M672 70h1M672 32h1M672 44h1M672 71h1M672 35h1M672 60h1M672 14h1M672 47h1M672 9h1M672 63h1M672 19h1M672 34h1M672 8h1M672 65h1M672 23h1M672 26h1M672 20h1M672 76h1M672 57h1M672 11h1M672 58h1M672 55h1M673 86h1M673 83h1M673 74h1M673 43h1M673 3h1M673 85h1M673 81h1M673 67h1M673 27h1M673 18h1M673 36h1M673 6h1M673 73h1M673 65h1M673 22h1M673 17h1M673 38h1M673 5h1M673 78h1M673 55h1M673 8h1M673 28h1M673 16h1M673 42h1M673 84h1M673 77h1M673 52h1M673 75h1M673 46h1M673 82h1M673 71h1M673 35h1M673 7h1M673 70h1M673 33h1M673 10h1M673 61h1M673 15h1M673 69h1M673 31h1M673 11h1M673 54h1M673 68h1M673 29h1M673 14h1M673 9h1M673 63h1M673 19h1M673 34h1M674 3h1M674 85h1M674 82h1M674 68h1M674 30h1M674 13h1M674 49h1M674 4h1M674 69h1M674 32h1M674 10h1M674 59h1M674 50h1M674 81h1M674 64h1M674 22h1M674 28h1M674 16h1M674 41h1M674 84h1M674 77h1M674 53h1M674 6h1M674 73h1M674 40h1M674 83h1M674 72h1M674 38h1M674 5h1M674 75h1M674 47h1M674 78h1M674 55h1M674 8h1M674 65h1M674 23h1M674 24h1M674 26h1M674 18h1M674 35h1M674 7h1M674 70h1M674 34h1M674 66h1M674 25h1M674 21h1M674 29h1M674 14h1M674 46h1M674 15h1M674 45h1M675 3h1M675 84h1M675 78h1M675 57h1M675 10h1M675 59h1M675 13h1M675 51h1M675 4h1M675 79h1M675 60h1M675 14h1M675 48h1M675 55h1M675 8h1M675 67h1M675 27h1M675 17h1M675 39h1M675 80h1M675 62h1M675 18h1M675 37h1M675 5h1M675 76h1M675 49h1M675 82h1M675 69h1M675 32h1M675 50h1M675 81h1M675 66h1M675 24h1M675 22h1M675 6h1M675 74h1M675 45h1M675 86h1M675 47h1M675 85h1M675 65h1M675 23h1M675 75h1M675 46h1M675 83h1M675 73h1M675 42h1M676 70h1M676 35h1M676 7h1M676 69h1M676 31h1M676 11h1M676 55h1M676 68h1M676 28h1M676 15h1M676 44h1M676 3h1M676 86h1M676 85h1M676 79h1M676 60h1M676 14h1M676 47h1M676 80h1M676 62h1M676 17h1M676 38h1M676 5h1M676 77h1M676 53h1M676 6h1M676 72h1M676 78h1M676 57h1M676 10h1M676 4h1M676 59h1M676 13h1M676 49h1M676 82h1M676 32h1M676 46h1M676 83h1M676 75h1M676 84h1M676 76h1M676 51h1M676 29h1M676 45h1M677 81h1M677 66h1M677 24h1M677 23h1M677 25h1M677 21h1M677 29h1M677 14h1M677 47h1M677 3h1M677 85h1M677 79h1M677 60h1M677 82h1M677 68h1M677 28h1M677 15h1M677 44h1M677 86h1M677 80h1M677 62h1M677 17h1M677 37h1M677 5h1M677 77h1M677 53h1M677 6h1M677 72h1M677 39h1M677 4h1M677 63h1M677 20h1M677 32h1M677 10h1M677 59h1M677 12h1M677 51h1M677 54h1M677 7h1M677 71h1M677 35h1M677 70h1M677 34h1M677 8h1M677 67h1M677 27h1M677 18h1M677 76h1M677 49h1M677 69h1M677 31h1M677 11h1M677 56h1M677 64h1M677 16h1M677 42h1M678 73h1M678 40h1M678 4h1M678 82h1M678 71h1M678 36h1M678 6h1M678 72h1M678 39h1M678 68h1M678 28h1M678 15h1M678 44h1M678 3h1M678 86h1M678 84h1M678 76h1M678 50h1M678 80h1M678 62h1M678 17h1M678 70h1M678 35h1M678 7h1M678 69h1M678 31h1M678 11h1M678 56h1M678 9h1M678 63h1M678 18h1M678 41h1M678 75h1M678 47h1M678 85h1M678 64h1M678 21h1M678 30h1M678 13h1M678 81h1M678 16h1M678 42h1M678 67h1M678 27h1M678 22h1M679 87h1"/></svg>
