<svg class="chart board" viewBox="0 0 650 217" role="img" aria-label="BiomniBench-DA"><text class="ttl" x="0" y="13">BiomniBench-DA</text><text class="sub" x="0" y="29">mean rubric score, 50 tasks, Gemini 3.1 Pro judge</text><rect class="bar h-oth" x="571.4" y="5" width="9" height="9"/><text x="584.4" y="13">other agents</text><rect class="bar h-cc" x="490.4" y="5" width="9" height="9"/><text x="503.4" y="13">Claude Code</text><rect class="bar h-os" x="410.5" y="5" width="9" height="9"/><text x="423.5" y="13">OpenScience</text><line class="gl" x1="232.7" x2="232.7" y1="42" y2="199"/><text class="tk" x="232.7" y="212" text-anchor="middle">0</text><line class="gl" x1="327" x2="327" y1="42" y2="199"/><text class="tk" x="327" y="212" text-anchor="middle">25</text><line class="gl" x1="421.3" x2="421.3" y1="42" y2="199"/><text class="tk" x="421.3" y="212" text-anchor="middle">50</text><line class="gl" x1="515.7" x2="515.7" y1="42" y2="199"/><text class="tk" x="515.7" y="212" text-anchor="middle">75</text><line class="gl" x1="610" x2="610" y1="42" y2="199"/><text class="tk" x="610" y="212" text-anchor="middle">100</text><text class="rl ours" x="222.7" y="56.5" text-anchor="end">OpenScience <tspan class="md">· GPT-6 Sol</tspan></text><rect class="bar h-os" x="232.7" y="48" width="310.2" height="11" style="--i:0"/><text class="val h-os" x="547.8" y="57">82.2</text><text class="rl" x="222.7" y="73.5" text-anchor="end">AIPOCH Open Science <tspan class="md">· GPT-5.6 Sol</tspan></text><rect class="bar h-oth" x="232.7" y="65" width="305.8" height="11" style="--i:1"/><text class="val h-oth" x="543.5" y="74">81.04</text><text class="rl" x="222.7" y="90.5" text-anchor="end">OmicOS <tspan class="md">· DeepSeek V4 Pro</tspan></text><rect class="bar h-oth" x="232.7" y="82" width="289" height="11" style="--i:2"/><text class="val h-oth" x="526.7" y="91">76.6</text><text class="rl" x="222.7" y="107.5" text-anchor="end">Claude Code (CSSwitch) <tspan class="md">· DeepSeek V4 Pro</tspan></text><rect class="bar h-cc" x="232.7" y="99" width="258.9" height="11" style="--i:3"/><text class="val h-cc" x="496.5" y="108">68.6</text><text class="rl" x="222.7" y="124.5" text-anchor="end">EvoScientist <tspan class="md">· DeepSeek V4 Pro</tspan></text><rect class="bar h-oth" x="232.7" y="116" width="246.4" height="11" style="--i:4"/><text class="val h-oth" x="484.1" y="125">65.3</text><text class="rl" x="222.7" y="141.5" text-anchor="end">ai4s-research/open-science <tspan class="md">· DeepSeek V4 Pro</tspan></text><rect class="bar h-oth" x="232.7" y="133" width="238.1" height="11" style="--i:5"/><text class="val h-oth" x="475.8" y="142">63.1</text><text class="rl" x="222.7" y="158.5" text-anchor="end">Biomni <tspan class="md">· DeepSeek V4 Pro</tspan></text><rect class="bar h-oth" x="232.7" y="150" width="236.2" height="11" style="--i:6"/><text class="val h-oth" x="473.9" y="159">62.6</text><text class="rl" x="222.7" y="175.5" text-anchor="end">OpenScience <tspan class="md">· DeepSeek V4 Pro *</tspan></text><rect class="bar h-os2" x="232.7" y="167" width="234.7" height="11" style="--i:7"/><text class="val h-os2" x="472.4" y="176">62.2</text><text class="rl" x="222.7" y="192.5" text-anchor="end">Wisp Science <tspan class="md">· DeepSeek V4 Pro</tspan></text><rect class="bar h-oth" x="232.7" y="184" width="233.2" height="11" style="--i:8"/><text class="val h-oth" x="470.9" y="193">61.8</text></svg>
